M48
; DRILL file {KiCad (5.1.7)-1} date 09/13/21 22:56:47
; FORMAT={-:-/ absolute / inch / decimal}
; #@! TF.CreationDate,2021-09-13T22:56:47+02:00
; #@! TF.GenerationSoftware,Kicad,Pcbnew,(5.1.7)-1
FMAT,2
INCH
T1C0.0118
T2C0.0197
T3C0.0315
T4C0.0420
T5C0.0787
T6C0.0866
%
G90
G05
T1
X2.5295Y-1.1811
X2.5295Y-1.4094
X2.5591Y-1.0945
X2.5591Y-1.4941
X2.6378Y-1.0413
X2.6378Y-1.1929
X2.6378Y-1.4724
X2.7795Y-1.1988
X2.7835Y-1.2559
X2.8366Y-1.4055
X2.8465Y-1.2894
X2.9213Y-1.3799
X2.9567Y-0.7894
X2.9665Y-1.122
X2.9803Y-0.9311
X2.9902Y-1.4094
X3.0059Y-0.9803
X3.0413Y-1.0846
X3.1654Y-1.2441
X3.1713Y-1.3268
X3.1988Y-0.815
X3.2697Y-1.0236
X3.2756Y-1.3307
X3.3228Y-1.2382
X3.3768Y-1.322
X3.4291Y-1.4724
X3.4331Y-1.2402
T2
X2.4508Y-1.0433
X2.4508Y-1.0925
X2.4508Y-1.1417
X2.4508Y-1.1909
X2.4508Y-1.2402
X2.4508Y-1.2894
X2.4508Y-1.3386
X2.4508Y-1.3878
X2.4508Y-1.437
X2.4508Y-1.4862
T3
X2.4094Y-2.0866
X2.7362Y-2.0768
X2.815Y-2.0768
X2.8937Y-2.0768
X2.9724Y-2.0768
X3.2992Y-1.8504
T4
X3.2268Y-1.3576
X3.2268Y-1.4412
X3.4268Y-1.3976
T5
X2.3819Y-1.9685
X2.4173Y-1.7933
X2.4173Y-2.2028
X3.2913Y-1.7343
X3.2913Y-2.2028
X3.3268Y-1.9685
T6
X2.3524Y-0.8563
X2.3524Y-2.4606
X3.376Y-0.8563
X3.376Y-2.4606
T0
M30
