%TF.GenerationSoftware,KiCad,Pcbnew,(5.1.7)-1*%
%TF.CreationDate,2021-09-13T22:56:48+02:00*%
%TF.ProjectId,Airspeed_SensorBoard,41697273-7065-4656-945f-53656e736f72,rev?*%
%TF.SameCoordinates,Original*%
%TF.FileFunction,Legend,Bot*%
%TF.FilePolarity,Positive*%
%FSLAX46Y46*%
G04 Gerber Fmt 4.6, Leading zero omitted, Abs format (unit mm)*
G04 Created by KiCad (PCBNEW (5.1.7)-1) date 2021-09-13 22:56:48*
%MOMM*%
%LPD*%
G01*
G04 APERTURE LIST*
%ADD10C,0.150000*%
%ADD11C,0.010000*%
G04 APERTURE END LIST*
D10*
X60390595Y-38500000D02*
X60485833Y-38452380D01*
X60628690Y-38452380D01*
X60771547Y-38500000D01*
X60866785Y-38595238D01*
X60914404Y-38690476D01*
X60962023Y-38880952D01*
X60962023Y-39023809D01*
X60914404Y-39214285D01*
X60866785Y-39309523D01*
X60771547Y-39404761D01*
X60628690Y-39452380D01*
X60533452Y-39452380D01*
X60390595Y-39404761D01*
X60342976Y-39357142D01*
X60342976Y-39023809D01*
X60533452Y-39023809D01*
X59914404Y-39452380D02*
X59914404Y-38452380D01*
X59342976Y-39452380D01*
X59342976Y-38452380D01*
X58866785Y-39452380D02*
X58866785Y-38452380D01*
X58628690Y-38452380D01*
X58485833Y-38500000D01*
X58390595Y-38595238D01*
X58342976Y-38690476D01*
X58295357Y-38880952D01*
X58295357Y-39023809D01*
X58342976Y-39214285D01*
X58390595Y-39309523D01*
X58485833Y-39404761D01*
X58628690Y-39452380D01*
X58866785Y-39452380D01*
X60962023Y-37904761D02*
X60819166Y-37952380D01*
X60581071Y-37952380D01*
X60485833Y-37904761D01*
X60438214Y-37857142D01*
X60390595Y-37761904D01*
X60390595Y-37666666D01*
X60438214Y-37571428D01*
X60485833Y-37523809D01*
X60581071Y-37476190D01*
X60771547Y-37428571D01*
X60866785Y-37380952D01*
X60914404Y-37333333D01*
X60962023Y-37238095D01*
X60962023Y-37142857D01*
X60914404Y-37047619D01*
X60866785Y-37000000D01*
X60771547Y-36952380D01*
X60533452Y-36952380D01*
X60390595Y-37000000D01*
X59390595Y-37857142D02*
X59438214Y-37904761D01*
X59581071Y-37952380D01*
X59676309Y-37952380D01*
X59819166Y-37904761D01*
X59914404Y-37809523D01*
X59962023Y-37714285D01*
X60009642Y-37523809D01*
X60009642Y-37380952D01*
X59962023Y-37190476D01*
X59914404Y-37095238D01*
X59819166Y-37000000D01*
X59676309Y-36952380D01*
X59581071Y-36952380D01*
X59438214Y-37000000D01*
X59390595Y-37047619D01*
X58962023Y-37952380D02*
X58962023Y-36952380D01*
X58390595Y-37952380D02*
X58819166Y-37380952D01*
X58390595Y-36952380D02*
X58962023Y-37523809D01*
X60914404Y-36452380D02*
X60914404Y-35452380D01*
X60438214Y-36452380D02*
X60438214Y-35452380D01*
X59866785Y-36452380D01*
X59866785Y-35452380D01*
X59533452Y-35452380D02*
X58962023Y-35452380D01*
X59247738Y-36452380D02*
X59247738Y-35452380D01*
X60914404Y-34857142D02*
X60866785Y-34904761D01*
X60914404Y-34952380D01*
X60962023Y-34904761D01*
X60914404Y-34857142D01*
X60914404Y-34952380D01*
X60914404Y-34571428D02*
X60962023Y-34000000D01*
X60914404Y-33952380D01*
X60866785Y-34000000D01*
X60914404Y-34571428D01*
X60914404Y-33952380D01*
X59866785Y-34857142D02*
X59914404Y-34904761D01*
X60057261Y-34952380D01*
X60152500Y-34952380D01*
X60295357Y-34904761D01*
X60390595Y-34809523D01*
X60438214Y-34714285D01*
X60485833Y-34523809D01*
X60485833Y-34380952D01*
X60438214Y-34190476D01*
X60390595Y-34095238D01*
X60295357Y-34000000D01*
X60152500Y-33952380D01*
X60057261Y-33952380D01*
X59914404Y-34000000D01*
X59866785Y-34047619D01*
X59485833Y-34904761D02*
X59342976Y-34952380D01*
X59104880Y-34952380D01*
X59009642Y-34904761D01*
X58962023Y-34857142D01*
X58914404Y-34761904D01*
X58914404Y-34666666D01*
X58962023Y-34571428D01*
X59009642Y-34523809D01*
X59104880Y-34476190D01*
X59295357Y-34428571D01*
X59390595Y-34380952D01*
X59438214Y-34333333D01*
X59485833Y-34238095D01*
X59485833Y-34142857D01*
X59438214Y-34047619D01*
X59390595Y-34000000D01*
X59295357Y-33952380D01*
X59057261Y-33952380D01*
X58914404Y-34000000D01*
X60914404Y-33452380D02*
X60914404Y-32452380D01*
X60581071Y-33166666D01*
X60247738Y-32452380D01*
X60247738Y-33452380D01*
X59581071Y-32452380D02*
X59390595Y-32452380D01*
X59295357Y-32500000D01*
X59200119Y-32595238D01*
X59152500Y-32785714D01*
X59152500Y-33119047D01*
X59200119Y-33309523D01*
X59295357Y-33404761D01*
X59390595Y-33452380D01*
X59581071Y-33452380D01*
X59676309Y-33404761D01*
X59771547Y-33309523D01*
X59819166Y-33119047D01*
X59819166Y-32785714D01*
X59771547Y-32595238D01*
X59676309Y-32500000D01*
X59581071Y-32452380D01*
X58771547Y-33404761D02*
X58628690Y-33452380D01*
X58390595Y-33452380D01*
X58295357Y-33404761D01*
X58247738Y-33357142D01*
X58200119Y-33261904D01*
X58200119Y-33166666D01*
X58247738Y-33071428D01*
X58295357Y-33023809D01*
X58390595Y-32976190D01*
X58581071Y-32928571D01*
X58676309Y-32880952D01*
X58723928Y-32833333D01*
X58771547Y-32738095D01*
X58771547Y-32642857D01*
X58723928Y-32547619D01*
X58676309Y-32500000D01*
X58581071Y-32452380D01*
X58342976Y-32452380D01*
X58200119Y-32500000D01*
X57771547Y-33452380D02*
X57771547Y-32452380D01*
X60914404Y-31952380D02*
X60914404Y-30952380D01*
X60581071Y-31666666D01*
X60247738Y-30952380D01*
X60247738Y-31952380D01*
X59771547Y-31952380D02*
X59771547Y-30952380D01*
X59342976Y-31904761D02*
X59200119Y-31952380D01*
X58962023Y-31952380D01*
X58866785Y-31904761D01*
X58819166Y-31857142D01*
X58771547Y-31761904D01*
X58771547Y-31666666D01*
X58819166Y-31571428D01*
X58866785Y-31523809D01*
X58962023Y-31476190D01*
X59152500Y-31428571D01*
X59247738Y-31380952D01*
X59295357Y-31333333D01*
X59342976Y-31238095D01*
X59342976Y-31142857D01*
X59295357Y-31047619D01*
X59247738Y-31000000D01*
X59152500Y-30952380D01*
X58914404Y-30952380D01*
X58771547Y-31000000D01*
X58152500Y-30952380D02*
X57962023Y-30952380D01*
X57866785Y-31000000D01*
X57771547Y-31095238D01*
X57723928Y-31285714D01*
X57723928Y-31619047D01*
X57771547Y-31809523D01*
X57866785Y-31904761D01*
X57962023Y-31952380D01*
X58152500Y-31952380D01*
X58247738Y-31904761D01*
X58342976Y-31809523D01*
X58390595Y-31619047D01*
X58390595Y-31285714D01*
X58342976Y-31095238D01*
X58247738Y-31000000D01*
X58152500Y-30952380D01*
X60390595Y-29500000D02*
X60485833Y-29452380D01*
X60628690Y-29452380D01*
X60771547Y-29500000D01*
X60866785Y-29595238D01*
X60914404Y-29690476D01*
X60962023Y-29880952D01*
X60962023Y-30023809D01*
X60914404Y-30214285D01*
X60866785Y-30309523D01*
X60771547Y-30404761D01*
X60628690Y-30452380D01*
X60533452Y-30452380D01*
X60390595Y-30404761D01*
X60342976Y-30357142D01*
X60342976Y-30023809D01*
X60533452Y-30023809D01*
X59914404Y-30452380D02*
X59914404Y-29452380D01*
X59342976Y-30452380D01*
X59342976Y-29452380D01*
X58866785Y-30452380D02*
X58866785Y-29452380D01*
X58628690Y-29452380D01*
X58485833Y-29500000D01*
X58390595Y-29595238D01*
X58342976Y-29690476D01*
X58295357Y-29880952D01*
X58295357Y-30023809D01*
X58342976Y-30214285D01*
X58390595Y-30309523D01*
X58485833Y-30404761D01*
X58628690Y-30452380D01*
X58866785Y-30452380D01*
X61009642Y-27952380D02*
X60390595Y-27952380D01*
X60723928Y-28333333D01*
X60581071Y-28333333D01*
X60485833Y-28380952D01*
X60438214Y-28428571D01*
X60390595Y-28523809D01*
X60390595Y-28761904D01*
X60438214Y-28857142D01*
X60485833Y-28904761D01*
X60581071Y-28952380D01*
X60866785Y-28952380D01*
X60962023Y-28904761D01*
X61009642Y-28857142D01*
X60104880Y-27952380D02*
X59771547Y-28952380D01*
X59438214Y-27952380D01*
X59200119Y-27952380D02*
X58581071Y-27952380D01*
X58914404Y-28333333D01*
X58771547Y-28333333D01*
X58676309Y-28380952D01*
X58628690Y-28428571D01*
X58581071Y-28523809D01*
X58581071Y-28761904D01*
X58628690Y-28857142D01*
X58676309Y-28904761D01*
X58771547Y-28952380D01*
X59057261Y-28952380D01*
X59152500Y-28904761D01*
X59200119Y-28857142D01*
X60390595Y-26500000D02*
X60485833Y-26452380D01*
X60628690Y-26452380D01*
X60771547Y-26500000D01*
X60866785Y-26595238D01*
X60914404Y-26690476D01*
X60962023Y-26880952D01*
X60962023Y-27023809D01*
X60914404Y-27214285D01*
X60866785Y-27309523D01*
X60771547Y-27404761D01*
X60628690Y-27452380D01*
X60533452Y-27452380D01*
X60390595Y-27404761D01*
X60342976Y-27357142D01*
X60342976Y-27023809D01*
X60533452Y-27023809D01*
X59914404Y-27452380D02*
X59914404Y-26452380D01*
X59342976Y-27452380D01*
X59342976Y-26452380D01*
X58866785Y-27452380D02*
X58866785Y-26452380D01*
X58628690Y-26452380D01*
X58485833Y-26500000D01*
X58390595Y-26595238D01*
X58342976Y-26690476D01*
X58295357Y-26880952D01*
X58295357Y-27023809D01*
X58342976Y-27214285D01*
X58390595Y-27309523D01*
X58485833Y-27404761D01*
X58628690Y-27452380D01*
X58866785Y-27452380D01*
X60438214Y-24952380D02*
X60914404Y-24952380D01*
X60962023Y-25428571D01*
X60914404Y-25380952D01*
X60819166Y-25333333D01*
X60581071Y-25333333D01*
X60485833Y-25380952D01*
X60438214Y-25428571D01*
X60390595Y-25523809D01*
X60390595Y-25761904D01*
X60438214Y-25857142D01*
X60485833Y-25904761D01*
X60581071Y-25952380D01*
X60819166Y-25952380D01*
X60914404Y-25904761D01*
X60962023Y-25857142D01*
X60104880Y-24952380D02*
X59771547Y-25952380D01*
X59438214Y-24952380D01*
D11*
%TO.C,G\u002A\u002A\u002A*%
G36*
X71523395Y-37354923D02*
G01*
X71520925Y-37696112D01*
X71151685Y-37698573D01*
X70782444Y-37701034D01*
X70782444Y-37014075D01*
X70330888Y-37014075D01*
X70330888Y-37701034D01*
X69961648Y-37698573D01*
X69592407Y-37696112D01*
X69587469Y-37014074D01*
X69361808Y-37014074D01*
X69136148Y-37014075D01*
X69136148Y-37700815D01*
X68421185Y-37700815D01*
X68421185Y-37014075D01*
X67951049Y-37014075D01*
X67948580Y-37355093D01*
X67946111Y-37696112D01*
X67207629Y-37701034D01*
X67207629Y-38237037D01*
X66596148Y-38237037D01*
X66596148Y-38688593D01*
X67207629Y-38688593D01*
X67207629Y-39431778D01*
X66596148Y-39431778D01*
X66596148Y-39883334D01*
X67207629Y-39883334D01*
X67207629Y-40617112D01*
X66596148Y-40617112D01*
X66596148Y-41068667D01*
X67207629Y-41068667D01*
X67207629Y-41811852D01*
X66596148Y-41811852D01*
X66596148Y-42263408D01*
X67207629Y-42263408D01*
X67207629Y-43006593D01*
X66595807Y-43006593D01*
X66600851Y-43453445D01*
X67207629Y-43458409D01*
X67207629Y-44201334D01*
X66595807Y-44201334D01*
X66600851Y-44648186D01*
X67207629Y-44653150D01*
X67207629Y-45386667D01*
X66596148Y-45386667D01*
X66596148Y-45838223D01*
X67207629Y-45838223D01*
X67207629Y-46383852D01*
X67950814Y-46383852D01*
X67950814Y-47070593D01*
X68421185Y-47070593D01*
X68421185Y-46383852D01*
X69136148Y-46383852D01*
X69136148Y-47070593D01*
X69587703Y-47070593D01*
X69587703Y-46383852D01*
X70330888Y-46383852D01*
X70330888Y-47070593D01*
X70782444Y-47070593D01*
X70782444Y-46383852D01*
X71525629Y-46383852D01*
X71525629Y-47070593D01*
X71745697Y-47070593D01*
X71816153Y-47070478D01*
X71870059Y-47070028D01*
X71909681Y-47069084D01*
X71937284Y-47067489D01*
X71955132Y-47065086D01*
X71965489Y-47061715D01*
X71970621Y-47057219D01*
X71971814Y-47054827D01*
X71973258Y-47041868D01*
X71974536Y-47012455D01*
X71975609Y-46968948D01*
X71976437Y-46913709D01*
X71976982Y-46849098D01*
X71977204Y-46777476D01*
X71977166Y-46732623D01*
X71977008Y-46657650D01*
X71976884Y-46588018D01*
X71976797Y-46526141D01*
X71976749Y-46474434D01*
X71976744Y-46435311D01*
X71976783Y-46411188D01*
X71976827Y-46405019D01*
X71977185Y-46383852D01*
X72710963Y-46383852D01*
X72710963Y-47070593D01*
X73162518Y-47070593D01*
X73162518Y-46383852D01*
X73905703Y-46383852D01*
X73905703Y-47070593D01*
X74357259Y-47070593D01*
X74357259Y-46383852D01*
X75101244Y-46383852D01*
X75095740Y-47070604D01*
X75323778Y-47070598D01*
X75551815Y-47070593D01*
X75551291Y-46729575D01*
X75550768Y-46388556D01*
X75921760Y-46386097D01*
X76015165Y-46385519D01*
X76091475Y-46385188D01*
X76152407Y-46385169D01*
X76199678Y-46385528D01*
X76235008Y-46386329D01*
X76260113Y-46387639D01*
X76276712Y-46389522D01*
X76286523Y-46392044D01*
X76291264Y-46395271D01*
X76292652Y-46399267D01*
X76292679Y-46400208D01*
X76292698Y-46413250D01*
X76292784Y-46442822D01*
X76292931Y-46486643D01*
X76293130Y-46542428D01*
X76293372Y-46607895D01*
X76293650Y-46680760D01*
X76293895Y-46743686D01*
X76295185Y-47070593D01*
X76514691Y-47070593D01*
X76577144Y-47070335D01*
X76633222Y-47069611D01*
X76680219Y-47068497D01*
X76715426Y-47067067D01*
X76736137Y-47065397D01*
X76740469Y-47064321D01*
X76741914Y-47053783D01*
X76743242Y-47026586D01*
X76744413Y-46984887D01*
X76745387Y-46930843D01*
X76746126Y-46866610D01*
X76746590Y-46794345D01*
X76746740Y-46720951D01*
X76746740Y-46383852D01*
X77423785Y-46383852D01*
X77428777Y-45842926D01*
X77769796Y-45840457D01*
X78110814Y-45837988D01*
X78110814Y-45386902D01*
X77769796Y-45384433D01*
X77428777Y-45381963D01*
X77424743Y-44784593D01*
X71894013Y-44784593D01*
X71366556Y-44784593D01*
X71361335Y-44754019D01*
X71358529Y-44736258D01*
X71353465Y-44702887D01*
X71346593Y-44656913D01*
X71338359Y-44601346D01*
X71329214Y-44539192D01*
X71323136Y-44497667D01*
X71313615Y-44432553D01*
X71304713Y-44371797D01*
X71296885Y-44318483D01*
X71290582Y-44275698D01*
X71286260Y-44246527D01*
X71284770Y-44236612D01*
X71279383Y-44201334D01*
X70822655Y-44201334D01*
X70811775Y-44269537D01*
X70804098Y-44320421D01*
X70797529Y-44369130D01*
X70792683Y-44410703D01*
X70790172Y-44440178D01*
X70789965Y-44445926D01*
X70788495Y-44460850D01*
X70784657Y-44490080D01*
X70779042Y-44529728D01*
X70772244Y-44575908D01*
X70764853Y-44624732D01*
X70757461Y-44672314D01*
X70750662Y-44714767D01*
X70745046Y-44748203D01*
X70741206Y-44768735D01*
X70740178Y-44772834D01*
X70734569Y-44776417D01*
X70719498Y-44779252D01*
X70693358Y-44781406D01*
X70654540Y-44782948D01*
X70601436Y-44783947D01*
X70532438Y-44784471D01*
X70463443Y-44784593D01*
X70393757Y-44784359D01*
X70330360Y-44783697D01*
X70275640Y-44782668D01*
X70231987Y-44781332D01*
X70201789Y-44779752D01*
X70187435Y-44777988D01*
X70186610Y-44777537D01*
X70187018Y-44766815D01*
X70190245Y-44739899D01*
X70195944Y-44699143D01*
X70203770Y-44646902D01*
X70213378Y-44585527D01*
X70224420Y-44517374D01*
X70228220Y-44494398D01*
X70242921Y-44405127D01*
X70259376Y-44303821D01*
X70276532Y-44197045D01*
X70293339Y-44091369D01*
X70308743Y-43993361D01*
X70317123Y-43939361D01*
X70326112Y-43881834D01*
X70337822Y-43808121D01*
X70351867Y-43720593D01*
X70367861Y-43621619D01*
X70385418Y-43513570D01*
X70404153Y-43398817D01*
X70423681Y-43279731D01*
X70430189Y-43240210D01*
X70114518Y-43240210D01*
X70114475Y-43408557D01*
X70114351Y-43571813D01*
X70114148Y-43728984D01*
X70113873Y-43879077D01*
X70113529Y-44021100D01*
X70113121Y-44154059D01*
X70112653Y-44276961D01*
X70112131Y-44388813D01*
X70111558Y-44488622D01*
X70110939Y-44575395D01*
X70110280Y-44648139D01*
X70109583Y-44705860D01*
X70108855Y-44747566D01*
X70108099Y-44772264D01*
X70107463Y-44779127D01*
X70096928Y-44780445D01*
X70069416Y-44781515D01*
X70026763Y-44782326D01*
X69970804Y-44782868D01*
X69903376Y-44783127D01*
X69826314Y-44783094D01*
X69741454Y-44782757D01*
X69650632Y-44782104D01*
X69639444Y-44782004D01*
X69529804Y-44780916D01*
X69437268Y-44779775D01*
X69360124Y-44778515D01*
X69296662Y-44777075D01*
X69245171Y-44775391D01*
X69203940Y-44773398D01*
X69171257Y-44771034D01*
X69145412Y-44768236D01*
X69124693Y-44764938D01*
X69113066Y-44762475D01*
X68998454Y-44728307D01*
X68898567Y-44682671D01*
X68812766Y-44624960D01*
X68740415Y-44554572D01*
X68680878Y-44470900D01*
X68633516Y-44373341D01*
X68601890Y-44277326D01*
X68594878Y-44250703D01*
X68589352Y-44226881D01*
X68585130Y-44203170D01*
X68582031Y-44176878D01*
X68579871Y-44145312D01*
X68578468Y-44105783D01*
X68577640Y-44055598D01*
X68577204Y-43992065D01*
X68576978Y-43912494D01*
X68576972Y-43909704D01*
X68577144Y-43814436D01*
X68578277Y-43735248D01*
X68580665Y-43669416D01*
X68584598Y-43614218D01*
X68590370Y-43566930D01*
X68598272Y-43524829D01*
X68608597Y-43485191D01*
X68621636Y-43445294D01*
X68628926Y-43425303D01*
X68657162Y-43364455D01*
X68695084Y-43303674D01*
X68739212Y-43247332D01*
X68786066Y-43199800D01*
X68832165Y-43165449D01*
X68838759Y-43161726D01*
X68870004Y-43144899D01*
X68822824Y-43106320D01*
X68763623Y-43046534D01*
X68713111Y-42972111D01*
X68672805Y-42885809D01*
X68644222Y-42790383D01*
X68641173Y-42776112D01*
X68630266Y-42704262D01*
X68623475Y-42619958D01*
X68620711Y-42528118D01*
X68621883Y-42433658D01*
X68626901Y-42341495D01*
X68635674Y-42256547D01*
X68648111Y-42183728D01*
X68652403Y-42165536D01*
X68686566Y-42065086D01*
X68734599Y-41975989D01*
X68795667Y-41899324D01*
X68868934Y-41836172D01*
X68939695Y-41794160D01*
X68977628Y-41776226D01*
X69013752Y-41760970D01*
X69049940Y-41748177D01*
X69088065Y-41737632D01*
X69130000Y-41729123D01*
X69177619Y-41722434D01*
X69232794Y-41717353D01*
X69297397Y-41713664D01*
X69373303Y-41711154D01*
X69462383Y-41709609D01*
X69566512Y-41708815D01*
X69687561Y-41708558D01*
X69688833Y-41708557D01*
X70114518Y-41708371D01*
X70114518Y-43240210D01*
X70430189Y-43240210D01*
X70443615Y-43158680D01*
X70463570Y-43038037D01*
X70472693Y-42983075D01*
X70491496Y-42869799D01*
X70509705Y-42759855D01*
X70527037Y-42654978D01*
X70543206Y-42556904D01*
X70557926Y-42467370D01*
X70570913Y-42388110D01*
X70581882Y-42320861D01*
X70590548Y-42267359D01*
X70596625Y-42229338D01*
X70599368Y-42211667D01*
X70611060Y-42134385D01*
X70623001Y-42056600D01*
X70634753Y-41981063D01*
X70645878Y-41910527D01*
X70655940Y-41847743D01*
X70664501Y-41795465D01*
X70671125Y-41756442D01*
X70675207Y-41734241D01*
X70680457Y-41708371D01*
X71384984Y-41708371D01*
X71392796Y-41729537D01*
X71398111Y-41750364D01*
X71403641Y-41781924D01*
X71406973Y-41807149D01*
X71409403Y-41824383D01*
X71414700Y-41858810D01*
X71422642Y-41909064D01*
X71433006Y-41973778D01*
X71445571Y-42051586D01*
X71460113Y-42141121D01*
X71476412Y-42241017D01*
X71494245Y-42349908D01*
X71513389Y-42466426D01*
X71533623Y-42589206D01*
X71554724Y-42716880D01*
X71562975Y-42766704D01*
X71584285Y-42895405D01*
X71604788Y-43019393D01*
X71624263Y-43137338D01*
X71642494Y-43247909D01*
X71659262Y-43349776D01*
X71674348Y-43441608D01*
X71687534Y-43522075D01*
X71698601Y-43589847D01*
X71707330Y-43643593D01*
X71713505Y-43681983D01*
X71716905Y-43703686D01*
X71717445Y-43707445D01*
X71721290Y-43736202D01*
X71726673Y-43775040D01*
X71732273Y-43814457D01*
X71735784Y-43837427D01*
X71741892Y-43875836D01*
X71750219Y-43927408D01*
X71760389Y-43989864D01*
X71772023Y-44060926D01*
X71784745Y-44138317D01*
X71798177Y-44219759D01*
X71811942Y-44302974D01*
X71825663Y-44385685D01*
X71838963Y-44465614D01*
X71851464Y-44540484D01*
X71862788Y-44608015D01*
X71872560Y-44665932D01*
X71880400Y-44711955D01*
X71885933Y-44743808D01*
X71888678Y-44758723D01*
X71894013Y-44784593D01*
X77424743Y-44784593D01*
X77423853Y-44652889D01*
X78110814Y-44652889D01*
X78110814Y-44201568D01*
X77769796Y-44199099D01*
X77428777Y-44196630D01*
X77428316Y-44127344D01*
X73297287Y-44127344D01*
X73297254Y-44250384D01*
X73297177Y-44362452D01*
X73297056Y-44462527D01*
X73296893Y-44549585D01*
X73296686Y-44622606D01*
X73296438Y-44680568D01*
X73296149Y-44722450D01*
X73295819Y-44747228D01*
X73295573Y-44753771D01*
X73292221Y-44784098D01*
X72640036Y-44784466D01*
X72495998Y-44784424D01*
X72370448Y-44784121D01*
X72263059Y-44783553D01*
X72173508Y-44782715D01*
X72101467Y-44781602D01*
X72046611Y-44780210D01*
X72008616Y-44778533D01*
X71987155Y-44776568D01*
X71981731Y-44774932D01*
X71979922Y-44762400D01*
X71978476Y-44731605D01*
X71977397Y-44683096D01*
X71976691Y-44617422D01*
X71976364Y-44535131D01*
X71976419Y-44436773D01*
X71976864Y-44322895D01*
X71977086Y-44283754D01*
X71978144Y-44279686D01*
X71982391Y-44276329D01*
X71991513Y-44273599D01*
X72007195Y-44271415D01*
X72031126Y-44269692D01*
X72064991Y-44268349D01*
X72110477Y-44267302D01*
X72169270Y-44266470D01*
X72243058Y-44265768D01*
X72333526Y-44265115D01*
X72360537Y-44264939D01*
X72743888Y-44262482D01*
X72746274Y-42985426D01*
X72748660Y-41708371D01*
X73294108Y-41708371D01*
X73296517Y-43215908D01*
X73296763Y-43383323D01*
X73296962Y-43545897D01*
X73297113Y-43702608D01*
X73297217Y-43852434D01*
X73297275Y-43994353D01*
X73297287Y-44127344D01*
X77428316Y-44127344D01*
X77426316Y-43827389D01*
X77423855Y-43458149D01*
X78110814Y-43458149D01*
X78110814Y-43006828D01*
X77769796Y-43004359D01*
X77428777Y-43001889D01*
X77428777Y-42268112D01*
X77769796Y-42265642D01*
X78110814Y-42263173D01*
X78110814Y-41811852D01*
X77423855Y-41811852D01*
X77426316Y-41442612D01*
X77427113Y-41322947D01*
X76746740Y-41322947D01*
X76715294Y-41322667D01*
X75100500Y-41322667D01*
X74545407Y-41322667D01*
X74545407Y-39977408D01*
X74131606Y-39977408D01*
X74129192Y-40647686D01*
X74126777Y-41317963D01*
X73851611Y-41320457D01*
X73576444Y-41322951D01*
X73576444Y-41322667D01*
X73313037Y-41322667D01*
X72758000Y-41322667D01*
X72758000Y-39793963D01*
X72757985Y-39625791D01*
X72757944Y-39462712D01*
X72757876Y-39305719D01*
X72757784Y-39155807D01*
X72757669Y-39013969D01*
X72757533Y-38881201D01*
X72757377Y-38758495D01*
X72757202Y-38646847D01*
X72757011Y-38547250D01*
X72756805Y-38460698D01*
X72756584Y-38388186D01*
X72756352Y-38330707D01*
X72756109Y-38289256D01*
X72755856Y-38264827D01*
X72755648Y-38258204D01*
X72764063Y-38256351D01*
X72789009Y-38254514D01*
X72828204Y-38252773D01*
X72879363Y-38251205D01*
X72940204Y-38249889D01*
X73008444Y-38248904D01*
X73033166Y-38248657D01*
X73281590Y-38246445D01*
X72494592Y-38246445D01*
X72494592Y-41322667D01*
X71168148Y-41322667D01*
X71168148Y-40805471D01*
X71551500Y-40803013D01*
X71934851Y-40800556D01*
X71935685Y-40353704D01*
X70086296Y-40353704D01*
X70086296Y-40479707D01*
X70082901Y-40612417D01*
X70072356Y-40729640D01*
X70054125Y-40833505D01*
X70027667Y-40926140D01*
X69992446Y-41009674D01*
X69947922Y-41086236D01*
X69924604Y-41119120D01*
X69864600Y-41184699D01*
X69790014Y-41242547D01*
X69704137Y-41290802D01*
X69610265Y-41327603D01*
X69515354Y-41350483D01*
X69459472Y-41356677D01*
X69391544Y-41359325D01*
X69317975Y-41358578D01*
X69245165Y-41354589D01*
X69179517Y-41347509D01*
X69145555Y-41341703D01*
X69036417Y-41310647D01*
X68937668Y-41264792D01*
X68850339Y-41204906D01*
X68775463Y-41131759D01*
X68714071Y-41046117D01*
X68690680Y-41002815D01*
X68662538Y-40941740D01*
X68641136Y-40885370D01*
X68625493Y-40829195D01*
X68614629Y-40768705D01*
X68607563Y-40699390D01*
X68603314Y-40616739D01*
X68602718Y-40598297D01*
X68601548Y-40505133D01*
X68604485Y-40425532D01*
X68612100Y-40354576D01*
X68624964Y-40287349D01*
X68643649Y-40218933D01*
X68648613Y-40203186D01*
X68692505Y-40093089D01*
X68752690Y-39982633D01*
X68827004Y-39875098D01*
X68913279Y-39773766D01*
X68968398Y-39718704D01*
X68995311Y-39693442D01*
X69032342Y-39658716D01*
X69075873Y-39617918D01*
X69122283Y-39574438D01*
X69159098Y-39539963D01*
X69215695Y-39486741D01*
X69260694Y-39443750D01*
X69296423Y-39408570D01*
X69325209Y-39378778D01*
X69349380Y-39351954D01*
X69371262Y-39325676D01*
X69393184Y-39297524D01*
X69397064Y-39292401D01*
X69451499Y-39208268D01*
X69488019Y-39122749D01*
X69507479Y-39033176D01*
X69510784Y-38937987D01*
X69503110Y-38866874D01*
X69486484Y-38811362D01*
X69460083Y-38770086D01*
X69423085Y-38741678D01*
X69383680Y-38726880D01*
X69333246Y-38720709D01*
X69282164Y-38725920D01*
X69235640Y-38741114D01*
X69198882Y-38764893D01*
X69185408Y-38780114D01*
X69170119Y-38805036D01*
X69158693Y-38832001D01*
X69150460Y-38864437D01*
X69144751Y-38905772D01*
X69140895Y-38959433D01*
X69138481Y-39020349D01*
X69133892Y-39168660D01*
X68870717Y-39166164D01*
X68607542Y-39163667D01*
X68608852Y-39009649D01*
X68611562Y-38910189D01*
X68618254Y-38825381D01*
X68629533Y-38751367D01*
X68646004Y-38684288D01*
X68668272Y-38620287D01*
X68670920Y-38613712D01*
X68718724Y-38514702D01*
X68775416Y-38431467D01*
X68842241Y-38362590D01*
X68920442Y-38306654D01*
X68958883Y-38285723D01*
X69015201Y-38259587D01*
X69067470Y-38240459D01*
X69120984Y-38227110D01*
X69181037Y-38218310D01*
X69252922Y-38212832D01*
X69277922Y-38211637D01*
X69408750Y-38212043D01*
X69526384Y-38225328D01*
X69631685Y-38251859D01*
X69725508Y-38292003D01*
X69808714Y-38346127D01*
X69882160Y-38414597D01*
X69946374Y-38497284D01*
X69994498Y-38584713D01*
X70031657Y-38684471D01*
X70057548Y-38793384D01*
X70071867Y-38908277D01*
X70074309Y-39025974D01*
X70064570Y-39143303D01*
X70042346Y-39257087D01*
X70024874Y-39316457D01*
X69998586Y-39383031D01*
X69962465Y-39456975D01*
X69919815Y-39532190D01*
X69873940Y-39602575D01*
X69857964Y-39624630D01*
X69826667Y-39663194D01*
X69782939Y-39712116D01*
X69728632Y-39769507D01*
X69665598Y-39833475D01*
X69595687Y-39902129D01*
X69520750Y-39973581D01*
X69470008Y-40020827D01*
X69393894Y-40093606D01*
X69332030Y-40158725D01*
X69282613Y-40218334D01*
X69243838Y-40274582D01*
X69218184Y-40320778D01*
X69192756Y-40377554D01*
X69175529Y-40431055D01*
X69165239Y-40487313D01*
X69160623Y-40552362D01*
X69160051Y-40598297D01*
X69162157Y-40662144D01*
X69168971Y-40711240D01*
X69181839Y-40749344D01*
X69202108Y-40780216D01*
X69231122Y-40807616D01*
X69236458Y-40811770D01*
X69255077Y-40824743D01*
X69272806Y-40832608D01*
X69295174Y-40836624D01*
X69327712Y-40838050D01*
X69352518Y-40838186D01*
X69393193Y-40837663D01*
X69420593Y-40835257D01*
X69440247Y-40829709D01*
X69457685Y-40819760D01*
X69468578Y-40811770D01*
X69492933Y-40791459D01*
X69511587Y-40770526D01*
X69525354Y-40746097D01*
X69535048Y-40715299D01*
X69541484Y-40675260D01*
X69545475Y-40623106D01*
X69547836Y-40555964D01*
X69548395Y-40530093D01*
X69551836Y-40353704D01*
X70086296Y-40353704D01*
X71935685Y-40353704D01*
X71937237Y-39523500D01*
X71937668Y-39292469D01*
X71077654Y-39292469D01*
X71077623Y-39292534D01*
X71067096Y-39295105D01*
X71041058Y-39297299D01*
X71002815Y-39298954D01*
X70955670Y-39299907D01*
X70924488Y-39300075D01*
X70776012Y-39300075D01*
X70730960Y-39203649D01*
X70711295Y-39161275D01*
X70686408Y-39107229D01*
X70658814Y-39046993D01*
X70631026Y-38986047D01*
X70615719Y-38952334D01*
X70591349Y-38898851D01*
X70567934Y-38847999D01*
X70547263Y-38803626D01*
X70531127Y-38769581D01*
X70522876Y-38752739D01*
X70515826Y-38738217D01*
X70510414Y-38724240D01*
X70506424Y-38708174D01*
X70503639Y-38687384D01*
X70501844Y-38659237D01*
X70500821Y-38621100D01*
X70500354Y-38570337D01*
X70500226Y-38504317D01*
X70500222Y-38477095D01*
X70500222Y-38246156D01*
X70770685Y-38248652D01*
X71041148Y-38251149D01*
X71043651Y-38513907D01*
X71044052Y-38587849D01*
X71043804Y-38652754D01*
X71042951Y-38706625D01*
X71041539Y-38747468D01*
X71039616Y-38773285D01*
X71037494Y-38782018D01*
X71024201Y-38784745D01*
X70997954Y-38786626D01*
X70966787Y-38787236D01*
X70935386Y-38787427D01*
X70913070Y-38788059D01*
X70904740Y-38788976D01*
X70907812Y-38798012D01*
X70915206Y-38817143D01*
X70915281Y-38817332D01*
X70928397Y-38851497D01*
X70944687Y-38895793D01*
X70963202Y-38947447D01*
X70982994Y-39003681D01*
X71003115Y-39061722D01*
X71022617Y-39118794D01*
X71040552Y-39172120D01*
X71055971Y-39218926D01*
X71067926Y-39256437D01*
X71075470Y-39281876D01*
X71077654Y-39292469D01*
X71937668Y-39292469D01*
X71939623Y-38246445D01*
X72494592Y-38246445D01*
X73281590Y-38246445D01*
X73313037Y-38246165D01*
X73313037Y-41322667D01*
X73576444Y-41322667D01*
X73576444Y-38246445D01*
X74131481Y-38246445D01*
X74131481Y-39460000D01*
X74545407Y-39460000D01*
X74545407Y-38246161D01*
X74820574Y-38248655D01*
X75095740Y-38251149D01*
X75100500Y-41322667D01*
X76715294Y-41322667D01*
X76187000Y-41317963D01*
X76184579Y-40713537D01*
X76182158Y-40109112D01*
X76085801Y-40108949D01*
X75945251Y-40103268D01*
X75819534Y-40086510D01*
X75708038Y-40058349D01*
X75610156Y-40018457D01*
X75525278Y-39966509D01*
X75452794Y-39902179D01*
X75392096Y-39825139D01*
X75342575Y-39735064D01*
X75329010Y-39703484D01*
X75312357Y-39659390D01*
X75298873Y-39616168D01*
X75288240Y-39571165D01*
X75280140Y-39521730D01*
X75274254Y-39465212D01*
X75270265Y-39398957D01*
X75267854Y-39320315D01*
X75266705Y-39226634D01*
X75266522Y-39182482D01*
X75266663Y-39085167D01*
X75267787Y-39003901D01*
X75270193Y-38935932D01*
X75274180Y-38878506D01*
X75280044Y-38828870D01*
X75288083Y-38784272D01*
X75298597Y-38741959D01*
X75311883Y-38699177D01*
X75321960Y-38670328D01*
X75350045Y-38601555D01*
X75381995Y-38543804D01*
X75422431Y-38489610D01*
X75458951Y-38449068D01*
X75527860Y-38385458D01*
X75600741Y-38336724D01*
X75683425Y-38299019D01*
X75690297Y-38296487D01*
X75723459Y-38285236D01*
X75757039Y-38275769D01*
X75792959Y-38267941D01*
X75833140Y-38261602D01*
X75879504Y-38256605D01*
X75933972Y-38252803D01*
X75998465Y-38250046D01*
X76074906Y-38248188D01*
X76165215Y-38247080D01*
X76271315Y-38246575D01*
X76339870Y-38246500D01*
X76746740Y-38246445D01*
X76746740Y-41322947D01*
X77427113Y-41322947D01*
X77428777Y-41073371D01*
X77769796Y-41070902D01*
X78110814Y-41068432D01*
X78110814Y-40617112D01*
X77424074Y-40617112D01*
X77424074Y-39883334D01*
X78110814Y-39883334D01*
X78110814Y-39432013D01*
X77769796Y-39429544D01*
X77428777Y-39427075D01*
X77428777Y-38693297D01*
X77769796Y-38690828D01*
X78110814Y-38688358D01*
X78110814Y-38237272D01*
X77769796Y-38234803D01*
X77428777Y-38232334D01*
X77426279Y-37966574D01*
X77423781Y-37700815D01*
X76746740Y-37700815D01*
X76746740Y-37014075D01*
X76295185Y-37014075D01*
X76293792Y-37336278D01*
X76293435Y-37413026D01*
X76293056Y-37484327D01*
X76292670Y-37547860D01*
X76292295Y-37601302D01*
X76291944Y-37642330D01*
X76291636Y-37668621D01*
X76291440Y-37677297D01*
X76290736Y-37682031D01*
X76287997Y-37685897D01*
X76281487Y-37688981D01*
X76269468Y-37691373D01*
X76250206Y-37693159D01*
X76221963Y-37694429D01*
X76183003Y-37695270D01*
X76131591Y-37695771D01*
X76065989Y-37696019D01*
X75984462Y-37696103D01*
X75920671Y-37696112D01*
X75550860Y-37696112D01*
X75547296Y-37018778D01*
X75323987Y-37016256D01*
X75100679Y-37013735D01*
X75098210Y-37354923D01*
X75095740Y-37696112D01*
X74361963Y-37696112D01*
X74359493Y-37355093D01*
X74357024Y-37014075D01*
X73905703Y-37014075D01*
X73905703Y-37701034D01*
X73536463Y-37698573D01*
X73167222Y-37696112D01*
X73164753Y-37355093D01*
X73162283Y-37014075D01*
X72710963Y-37014075D01*
X72710963Y-37700815D01*
X71977419Y-37700815D01*
X71974950Y-37359797D01*
X71972481Y-37018778D01*
X71749173Y-37016256D01*
X71525864Y-37013735D01*
X71523395Y-37354923D01*
G37*
X71523395Y-37354923D02*
X71520925Y-37696112D01*
X71151685Y-37698573D01*
X70782444Y-37701034D01*
X70782444Y-37014075D01*
X70330888Y-37014075D01*
X70330888Y-37701034D01*
X69961648Y-37698573D01*
X69592407Y-37696112D01*
X69587469Y-37014074D01*
X69361808Y-37014074D01*
X69136148Y-37014075D01*
X69136148Y-37700815D01*
X68421185Y-37700815D01*
X68421185Y-37014075D01*
X67951049Y-37014075D01*
X67948580Y-37355093D01*
X67946111Y-37696112D01*
X67207629Y-37701034D01*
X67207629Y-38237037D01*
X66596148Y-38237037D01*
X66596148Y-38688593D01*
X67207629Y-38688593D01*
X67207629Y-39431778D01*
X66596148Y-39431778D01*
X66596148Y-39883334D01*
X67207629Y-39883334D01*
X67207629Y-40617112D01*
X66596148Y-40617112D01*
X66596148Y-41068667D01*
X67207629Y-41068667D01*
X67207629Y-41811852D01*
X66596148Y-41811852D01*
X66596148Y-42263408D01*
X67207629Y-42263408D01*
X67207629Y-43006593D01*
X66595807Y-43006593D01*
X66600851Y-43453445D01*
X67207629Y-43458409D01*
X67207629Y-44201334D01*
X66595807Y-44201334D01*
X66600851Y-44648186D01*
X67207629Y-44653150D01*
X67207629Y-45386667D01*
X66596148Y-45386667D01*
X66596148Y-45838223D01*
X67207629Y-45838223D01*
X67207629Y-46383852D01*
X67950814Y-46383852D01*
X67950814Y-47070593D01*
X68421185Y-47070593D01*
X68421185Y-46383852D01*
X69136148Y-46383852D01*
X69136148Y-47070593D01*
X69587703Y-47070593D01*
X69587703Y-46383852D01*
X70330888Y-46383852D01*
X70330888Y-47070593D01*
X70782444Y-47070593D01*
X70782444Y-46383852D01*
X71525629Y-46383852D01*
X71525629Y-47070593D01*
X71745697Y-47070593D01*
X71816153Y-47070478D01*
X71870059Y-47070028D01*
X71909681Y-47069084D01*
X71937284Y-47067489D01*
X71955132Y-47065086D01*
X71965489Y-47061715D01*
X71970621Y-47057219D01*
X71971814Y-47054827D01*
X71973258Y-47041868D01*
X71974536Y-47012455D01*
X71975609Y-46968948D01*
X71976437Y-46913709D01*
X71976982Y-46849098D01*
X71977204Y-46777476D01*
X71977166Y-46732623D01*
X71977008Y-46657650D01*
X71976884Y-46588018D01*
X71976797Y-46526141D01*
X71976749Y-46474434D01*
X71976744Y-46435311D01*
X71976783Y-46411188D01*
X71976827Y-46405019D01*
X71977185Y-46383852D01*
X72710963Y-46383852D01*
X72710963Y-47070593D01*
X73162518Y-47070593D01*
X73162518Y-46383852D01*
X73905703Y-46383852D01*
X73905703Y-47070593D01*
X74357259Y-47070593D01*
X74357259Y-46383852D01*
X75101244Y-46383852D01*
X75095740Y-47070604D01*
X75323778Y-47070598D01*
X75551815Y-47070593D01*
X75551291Y-46729575D01*
X75550768Y-46388556D01*
X75921760Y-46386097D01*
X76015165Y-46385519D01*
X76091475Y-46385188D01*
X76152407Y-46385169D01*
X76199678Y-46385528D01*
X76235008Y-46386329D01*
X76260113Y-46387639D01*
X76276712Y-46389522D01*
X76286523Y-46392044D01*
X76291264Y-46395271D01*
X76292652Y-46399267D01*
X76292679Y-46400208D01*
X76292698Y-46413250D01*
X76292784Y-46442822D01*
X76292931Y-46486643D01*
X76293130Y-46542428D01*
X76293372Y-46607895D01*
X76293650Y-46680760D01*
X76293895Y-46743686D01*
X76295185Y-47070593D01*
X76514691Y-47070593D01*
X76577144Y-47070335D01*
X76633222Y-47069611D01*
X76680219Y-47068497D01*
X76715426Y-47067067D01*
X76736137Y-47065397D01*
X76740469Y-47064321D01*
X76741914Y-47053783D01*
X76743242Y-47026586D01*
X76744413Y-46984887D01*
X76745387Y-46930843D01*
X76746126Y-46866610D01*
X76746590Y-46794345D01*
X76746740Y-46720951D01*
X76746740Y-46383852D01*
X77423785Y-46383852D01*
X77428777Y-45842926D01*
X77769796Y-45840457D01*
X78110814Y-45837988D01*
X78110814Y-45386902D01*
X77769796Y-45384433D01*
X77428777Y-45381963D01*
X77424743Y-44784593D01*
X71894013Y-44784593D01*
X71366556Y-44784593D01*
X71361335Y-44754019D01*
X71358529Y-44736258D01*
X71353465Y-44702887D01*
X71346593Y-44656913D01*
X71338359Y-44601346D01*
X71329214Y-44539192D01*
X71323136Y-44497667D01*
X71313615Y-44432553D01*
X71304713Y-44371797D01*
X71296885Y-44318483D01*
X71290582Y-44275698D01*
X71286260Y-44246527D01*
X71284770Y-44236612D01*
X71279383Y-44201334D01*
X70822655Y-44201334D01*
X70811775Y-44269537D01*
X70804098Y-44320421D01*
X70797529Y-44369130D01*
X70792683Y-44410703D01*
X70790172Y-44440178D01*
X70789965Y-44445926D01*
X70788495Y-44460850D01*
X70784657Y-44490080D01*
X70779042Y-44529728D01*
X70772244Y-44575908D01*
X70764853Y-44624732D01*
X70757461Y-44672314D01*
X70750662Y-44714767D01*
X70745046Y-44748203D01*
X70741206Y-44768735D01*
X70740178Y-44772834D01*
X70734569Y-44776417D01*
X70719498Y-44779252D01*
X70693358Y-44781406D01*
X70654540Y-44782948D01*
X70601436Y-44783947D01*
X70532438Y-44784471D01*
X70463443Y-44784593D01*
X70393757Y-44784359D01*
X70330360Y-44783697D01*
X70275640Y-44782668D01*
X70231987Y-44781332D01*
X70201789Y-44779752D01*
X70187435Y-44777988D01*
X70186610Y-44777537D01*
X70187018Y-44766815D01*
X70190245Y-44739899D01*
X70195944Y-44699143D01*
X70203770Y-44646902D01*
X70213378Y-44585527D01*
X70224420Y-44517374D01*
X70228220Y-44494398D01*
X70242921Y-44405127D01*
X70259376Y-44303821D01*
X70276532Y-44197045D01*
X70293339Y-44091369D01*
X70308743Y-43993361D01*
X70317123Y-43939361D01*
X70326112Y-43881834D01*
X70337822Y-43808121D01*
X70351867Y-43720593D01*
X70367861Y-43621619D01*
X70385418Y-43513570D01*
X70404153Y-43398817D01*
X70423681Y-43279731D01*
X70430189Y-43240210D01*
X70114518Y-43240210D01*
X70114475Y-43408557D01*
X70114351Y-43571813D01*
X70114148Y-43728984D01*
X70113873Y-43879077D01*
X70113529Y-44021100D01*
X70113121Y-44154059D01*
X70112653Y-44276961D01*
X70112131Y-44388813D01*
X70111558Y-44488622D01*
X70110939Y-44575395D01*
X70110280Y-44648139D01*
X70109583Y-44705860D01*
X70108855Y-44747566D01*
X70108099Y-44772264D01*
X70107463Y-44779127D01*
X70096928Y-44780445D01*
X70069416Y-44781515D01*
X70026763Y-44782326D01*
X69970804Y-44782868D01*
X69903376Y-44783127D01*
X69826314Y-44783094D01*
X69741454Y-44782757D01*
X69650632Y-44782104D01*
X69639444Y-44782004D01*
X69529804Y-44780916D01*
X69437268Y-44779775D01*
X69360124Y-44778515D01*
X69296662Y-44777075D01*
X69245171Y-44775391D01*
X69203940Y-44773398D01*
X69171257Y-44771034D01*
X69145412Y-44768236D01*
X69124693Y-44764938D01*
X69113066Y-44762475D01*
X68998454Y-44728307D01*
X68898567Y-44682671D01*
X68812766Y-44624960D01*
X68740415Y-44554572D01*
X68680878Y-44470900D01*
X68633516Y-44373341D01*
X68601890Y-44277326D01*
X68594878Y-44250703D01*
X68589352Y-44226881D01*
X68585130Y-44203170D01*
X68582031Y-44176878D01*
X68579871Y-44145312D01*
X68578468Y-44105783D01*
X68577640Y-44055598D01*
X68577204Y-43992065D01*
X68576978Y-43912494D01*
X68576972Y-43909704D01*
X68577144Y-43814436D01*
X68578277Y-43735248D01*
X68580665Y-43669416D01*
X68584598Y-43614218D01*
X68590370Y-43566930D01*
X68598272Y-43524829D01*
X68608597Y-43485191D01*
X68621636Y-43445294D01*
X68628926Y-43425303D01*
X68657162Y-43364455D01*
X68695084Y-43303674D01*
X68739212Y-43247332D01*
X68786066Y-43199800D01*
X68832165Y-43165449D01*
X68838759Y-43161726D01*
X68870004Y-43144899D01*
X68822824Y-43106320D01*
X68763623Y-43046534D01*
X68713111Y-42972111D01*
X68672805Y-42885809D01*
X68644222Y-42790383D01*
X68641173Y-42776112D01*
X68630266Y-42704262D01*
X68623475Y-42619958D01*
X68620711Y-42528118D01*
X68621883Y-42433658D01*
X68626901Y-42341495D01*
X68635674Y-42256547D01*
X68648111Y-42183728D01*
X68652403Y-42165536D01*
X68686566Y-42065086D01*
X68734599Y-41975989D01*
X68795667Y-41899324D01*
X68868934Y-41836172D01*
X68939695Y-41794160D01*
X68977628Y-41776226D01*
X69013752Y-41760970D01*
X69049940Y-41748177D01*
X69088065Y-41737632D01*
X69130000Y-41729123D01*
X69177619Y-41722434D01*
X69232794Y-41717353D01*
X69297397Y-41713664D01*
X69373303Y-41711154D01*
X69462383Y-41709609D01*
X69566512Y-41708815D01*
X69687561Y-41708558D01*
X69688833Y-41708557D01*
X70114518Y-41708371D01*
X70114518Y-43240210D01*
X70430189Y-43240210D01*
X70443615Y-43158680D01*
X70463570Y-43038037D01*
X70472693Y-42983075D01*
X70491496Y-42869799D01*
X70509705Y-42759855D01*
X70527037Y-42654978D01*
X70543206Y-42556904D01*
X70557926Y-42467370D01*
X70570913Y-42388110D01*
X70581882Y-42320861D01*
X70590548Y-42267359D01*
X70596625Y-42229338D01*
X70599368Y-42211667D01*
X70611060Y-42134385D01*
X70623001Y-42056600D01*
X70634753Y-41981063D01*
X70645878Y-41910527D01*
X70655940Y-41847743D01*
X70664501Y-41795465D01*
X70671125Y-41756442D01*
X70675207Y-41734241D01*
X70680457Y-41708371D01*
X71384984Y-41708371D01*
X71392796Y-41729537D01*
X71398111Y-41750364D01*
X71403641Y-41781924D01*
X71406973Y-41807149D01*
X71409403Y-41824383D01*
X71414700Y-41858810D01*
X71422642Y-41909064D01*
X71433006Y-41973778D01*
X71445571Y-42051586D01*
X71460113Y-42141121D01*
X71476412Y-42241017D01*
X71494245Y-42349908D01*
X71513389Y-42466426D01*
X71533623Y-42589206D01*
X71554724Y-42716880D01*
X71562975Y-42766704D01*
X71584285Y-42895405D01*
X71604788Y-43019393D01*
X71624263Y-43137338D01*
X71642494Y-43247909D01*
X71659262Y-43349776D01*
X71674348Y-43441608D01*
X71687534Y-43522075D01*
X71698601Y-43589847D01*
X71707330Y-43643593D01*
X71713505Y-43681983D01*
X71716905Y-43703686D01*
X71717445Y-43707445D01*
X71721290Y-43736202D01*
X71726673Y-43775040D01*
X71732273Y-43814457D01*
X71735784Y-43837427D01*
X71741892Y-43875836D01*
X71750219Y-43927408D01*
X71760389Y-43989864D01*
X71772023Y-44060926D01*
X71784745Y-44138317D01*
X71798177Y-44219759D01*
X71811942Y-44302974D01*
X71825663Y-44385685D01*
X71838963Y-44465614D01*
X71851464Y-44540484D01*
X71862788Y-44608015D01*
X71872560Y-44665932D01*
X71880400Y-44711955D01*
X71885933Y-44743808D01*
X71888678Y-44758723D01*
X71894013Y-44784593D01*
X77424743Y-44784593D01*
X77423853Y-44652889D01*
X78110814Y-44652889D01*
X78110814Y-44201568D01*
X77769796Y-44199099D01*
X77428777Y-44196630D01*
X77428316Y-44127344D01*
X73297287Y-44127344D01*
X73297254Y-44250384D01*
X73297177Y-44362452D01*
X73297056Y-44462527D01*
X73296893Y-44549585D01*
X73296686Y-44622606D01*
X73296438Y-44680568D01*
X73296149Y-44722450D01*
X73295819Y-44747228D01*
X73295573Y-44753771D01*
X73292221Y-44784098D01*
X72640036Y-44784466D01*
X72495998Y-44784424D01*
X72370448Y-44784121D01*
X72263059Y-44783553D01*
X72173508Y-44782715D01*
X72101467Y-44781602D01*
X72046611Y-44780210D01*
X72008616Y-44778533D01*
X71987155Y-44776568D01*
X71981731Y-44774932D01*
X71979922Y-44762400D01*
X71978476Y-44731605D01*
X71977397Y-44683096D01*
X71976691Y-44617422D01*
X71976364Y-44535131D01*
X71976419Y-44436773D01*
X71976864Y-44322895D01*
X71977086Y-44283754D01*
X71978144Y-44279686D01*
X71982391Y-44276329D01*
X71991513Y-44273599D01*
X72007195Y-44271415D01*
X72031126Y-44269692D01*
X72064991Y-44268349D01*
X72110477Y-44267302D01*
X72169270Y-44266470D01*
X72243058Y-44265768D01*
X72333526Y-44265115D01*
X72360537Y-44264939D01*
X72743888Y-44262482D01*
X72746274Y-42985426D01*
X72748660Y-41708371D01*
X73294108Y-41708371D01*
X73296517Y-43215908D01*
X73296763Y-43383323D01*
X73296962Y-43545897D01*
X73297113Y-43702608D01*
X73297217Y-43852434D01*
X73297275Y-43994353D01*
X73297287Y-44127344D01*
X77428316Y-44127344D01*
X77426316Y-43827389D01*
X77423855Y-43458149D01*
X78110814Y-43458149D01*
X78110814Y-43006828D01*
X77769796Y-43004359D01*
X77428777Y-43001889D01*
X77428777Y-42268112D01*
X77769796Y-42265642D01*
X78110814Y-42263173D01*
X78110814Y-41811852D01*
X77423855Y-41811852D01*
X77426316Y-41442612D01*
X77427113Y-41322947D01*
X76746740Y-41322947D01*
X76715294Y-41322667D01*
X75100500Y-41322667D01*
X74545407Y-41322667D01*
X74545407Y-39977408D01*
X74131606Y-39977408D01*
X74129192Y-40647686D01*
X74126777Y-41317963D01*
X73851611Y-41320457D01*
X73576444Y-41322951D01*
X73576444Y-41322667D01*
X73313037Y-41322667D01*
X72758000Y-41322667D01*
X72758000Y-39793963D01*
X72757985Y-39625791D01*
X72757944Y-39462712D01*
X72757876Y-39305719D01*
X72757784Y-39155807D01*
X72757669Y-39013969D01*
X72757533Y-38881201D01*
X72757377Y-38758495D01*
X72757202Y-38646847D01*
X72757011Y-38547250D01*
X72756805Y-38460698D01*
X72756584Y-38388186D01*
X72756352Y-38330707D01*
X72756109Y-38289256D01*
X72755856Y-38264827D01*
X72755648Y-38258204D01*
X72764063Y-38256351D01*
X72789009Y-38254514D01*
X72828204Y-38252773D01*
X72879363Y-38251205D01*
X72940204Y-38249889D01*
X73008444Y-38248904D01*
X73033166Y-38248657D01*
X73281590Y-38246445D01*
X72494592Y-38246445D01*
X72494592Y-41322667D01*
X71168148Y-41322667D01*
X71168148Y-40805471D01*
X71551500Y-40803013D01*
X71934851Y-40800556D01*
X71935685Y-40353704D01*
X70086296Y-40353704D01*
X70086296Y-40479707D01*
X70082901Y-40612417D01*
X70072356Y-40729640D01*
X70054125Y-40833505D01*
X70027667Y-40926140D01*
X69992446Y-41009674D01*
X69947922Y-41086236D01*
X69924604Y-41119120D01*
X69864600Y-41184699D01*
X69790014Y-41242547D01*
X69704137Y-41290802D01*
X69610265Y-41327603D01*
X69515354Y-41350483D01*
X69459472Y-41356677D01*
X69391544Y-41359325D01*
X69317975Y-41358578D01*
X69245165Y-41354589D01*
X69179517Y-41347509D01*
X69145555Y-41341703D01*
X69036417Y-41310647D01*
X68937668Y-41264792D01*
X68850339Y-41204906D01*
X68775463Y-41131759D01*
X68714071Y-41046117D01*
X68690680Y-41002815D01*
X68662538Y-40941740D01*
X68641136Y-40885370D01*
X68625493Y-40829195D01*
X68614629Y-40768705D01*
X68607563Y-40699390D01*
X68603314Y-40616739D01*
X68602718Y-40598297D01*
X68601548Y-40505133D01*
X68604485Y-40425532D01*
X68612100Y-40354576D01*
X68624964Y-40287349D01*
X68643649Y-40218933D01*
X68648613Y-40203186D01*
X68692505Y-40093089D01*
X68752690Y-39982633D01*
X68827004Y-39875098D01*
X68913279Y-39773766D01*
X68968398Y-39718704D01*
X68995311Y-39693442D01*
X69032342Y-39658716D01*
X69075873Y-39617918D01*
X69122283Y-39574438D01*
X69159098Y-39539963D01*
X69215695Y-39486741D01*
X69260694Y-39443750D01*
X69296423Y-39408570D01*
X69325209Y-39378778D01*
X69349380Y-39351954D01*
X69371262Y-39325676D01*
X69393184Y-39297524D01*
X69397064Y-39292401D01*
X69451499Y-39208268D01*
X69488019Y-39122749D01*
X69507479Y-39033176D01*
X69510784Y-38937987D01*
X69503110Y-38866874D01*
X69486484Y-38811362D01*
X69460083Y-38770086D01*
X69423085Y-38741678D01*
X69383680Y-38726880D01*
X69333246Y-38720709D01*
X69282164Y-38725920D01*
X69235640Y-38741114D01*
X69198882Y-38764893D01*
X69185408Y-38780114D01*
X69170119Y-38805036D01*
X69158693Y-38832001D01*
X69150460Y-38864437D01*
X69144751Y-38905772D01*
X69140895Y-38959433D01*
X69138481Y-39020349D01*
X69133892Y-39168660D01*
X68870717Y-39166164D01*
X68607542Y-39163667D01*
X68608852Y-39009649D01*
X68611562Y-38910189D01*
X68618254Y-38825381D01*
X68629533Y-38751367D01*
X68646004Y-38684288D01*
X68668272Y-38620287D01*
X68670920Y-38613712D01*
X68718724Y-38514702D01*
X68775416Y-38431467D01*
X68842241Y-38362590D01*
X68920442Y-38306654D01*
X68958883Y-38285723D01*
X69015201Y-38259587D01*
X69067470Y-38240459D01*
X69120984Y-38227110D01*
X69181037Y-38218310D01*
X69252922Y-38212832D01*
X69277922Y-38211637D01*
X69408750Y-38212043D01*
X69526384Y-38225328D01*
X69631685Y-38251859D01*
X69725508Y-38292003D01*
X69808714Y-38346127D01*
X69882160Y-38414597D01*
X69946374Y-38497284D01*
X69994498Y-38584713D01*
X70031657Y-38684471D01*
X70057548Y-38793384D01*
X70071867Y-38908277D01*
X70074309Y-39025974D01*
X70064570Y-39143303D01*
X70042346Y-39257087D01*
X70024874Y-39316457D01*
X69998586Y-39383031D01*
X69962465Y-39456975D01*
X69919815Y-39532190D01*
X69873940Y-39602575D01*
X69857964Y-39624630D01*
X69826667Y-39663194D01*
X69782939Y-39712116D01*
X69728632Y-39769507D01*
X69665598Y-39833475D01*
X69595687Y-39902129D01*
X69520750Y-39973581D01*
X69470008Y-40020827D01*
X69393894Y-40093606D01*
X69332030Y-40158725D01*
X69282613Y-40218334D01*
X69243838Y-40274582D01*
X69218184Y-40320778D01*
X69192756Y-40377554D01*
X69175529Y-40431055D01*
X69165239Y-40487313D01*
X69160623Y-40552362D01*
X69160051Y-40598297D01*
X69162157Y-40662144D01*
X69168971Y-40711240D01*
X69181839Y-40749344D01*
X69202108Y-40780216D01*
X69231122Y-40807616D01*
X69236458Y-40811770D01*
X69255077Y-40824743D01*
X69272806Y-40832608D01*
X69295174Y-40836624D01*
X69327712Y-40838050D01*
X69352518Y-40838186D01*
X69393193Y-40837663D01*
X69420593Y-40835257D01*
X69440247Y-40829709D01*
X69457685Y-40819760D01*
X69468578Y-40811770D01*
X69492933Y-40791459D01*
X69511587Y-40770526D01*
X69525354Y-40746097D01*
X69535048Y-40715299D01*
X69541484Y-40675260D01*
X69545475Y-40623106D01*
X69547836Y-40555964D01*
X69548395Y-40530093D01*
X69551836Y-40353704D01*
X70086296Y-40353704D01*
X71935685Y-40353704D01*
X71937237Y-39523500D01*
X71937668Y-39292469D01*
X71077654Y-39292469D01*
X71077623Y-39292534D01*
X71067096Y-39295105D01*
X71041058Y-39297299D01*
X71002815Y-39298954D01*
X70955670Y-39299907D01*
X70924488Y-39300075D01*
X70776012Y-39300075D01*
X70730960Y-39203649D01*
X70711295Y-39161275D01*
X70686408Y-39107229D01*
X70658814Y-39046993D01*
X70631026Y-38986047D01*
X70615719Y-38952334D01*
X70591349Y-38898851D01*
X70567934Y-38847999D01*
X70547263Y-38803626D01*
X70531127Y-38769581D01*
X70522876Y-38752739D01*
X70515826Y-38738217D01*
X70510414Y-38724240D01*
X70506424Y-38708174D01*
X70503639Y-38687384D01*
X70501844Y-38659237D01*
X70500821Y-38621100D01*
X70500354Y-38570337D01*
X70500226Y-38504317D01*
X70500222Y-38477095D01*
X70500222Y-38246156D01*
X70770685Y-38248652D01*
X71041148Y-38251149D01*
X71043651Y-38513907D01*
X71044052Y-38587849D01*
X71043804Y-38652754D01*
X71042951Y-38706625D01*
X71041539Y-38747468D01*
X71039616Y-38773285D01*
X71037494Y-38782018D01*
X71024201Y-38784745D01*
X70997954Y-38786626D01*
X70966787Y-38787236D01*
X70935386Y-38787427D01*
X70913070Y-38788059D01*
X70904740Y-38788976D01*
X70907812Y-38798012D01*
X70915206Y-38817143D01*
X70915281Y-38817332D01*
X70928397Y-38851497D01*
X70944687Y-38895793D01*
X70963202Y-38947447D01*
X70982994Y-39003681D01*
X71003115Y-39061722D01*
X71022617Y-39118794D01*
X71040552Y-39172120D01*
X71055971Y-39218926D01*
X71067926Y-39256437D01*
X71075470Y-39281876D01*
X71077654Y-39292469D01*
X71937668Y-39292469D01*
X71939623Y-38246445D01*
X72494592Y-38246445D01*
X73281590Y-38246445D01*
X73313037Y-38246165D01*
X73313037Y-41322667D01*
X73576444Y-41322667D01*
X73576444Y-38246445D01*
X74131481Y-38246445D01*
X74131481Y-39460000D01*
X74545407Y-39460000D01*
X74545407Y-38246161D01*
X74820574Y-38248655D01*
X75095740Y-38251149D01*
X75100500Y-41322667D01*
X76715294Y-41322667D01*
X76187000Y-41317963D01*
X76184579Y-40713537D01*
X76182158Y-40109112D01*
X76085801Y-40108949D01*
X75945251Y-40103268D01*
X75819534Y-40086510D01*
X75708038Y-40058349D01*
X75610156Y-40018457D01*
X75525278Y-39966509D01*
X75452794Y-39902179D01*
X75392096Y-39825139D01*
X75342575Y-39735064D01*
X75329010Y-39703484D01*
X75312357Y-39659390D01*
X75298873Y-39616168D01*
X75288240Y-39571165D01*
X75280140Y-39521730D01*
X75274254Y-39465212D01*
X75270265Y-39398957D01*
X75267854Y-39320315D01*
X75266705Y-39226634D01*
X75266522Y-39182482D01*
X75266663Y-39085167D01*
X75267787Y-39003901D01*
X75270193Y-38935932D01*
X75274180Y-38878506D01*
X75280044Y-38828870D01*
X75288083Y-38784272D01*
X75298597Y-38741959D01*
X75311883Y-38699177D01*
X75321960Y-38670328D01*
X75350045Y-38601555D01*
X75381995Y-38543804D01*
X75422431Y-38489610D01*
X75458951Y-38449068D01*
X75527860Y-38385458D01*
X75600741Y-38336724D01*
X75683425Y-38299019D01*
X75690297Y-38296487D01*
X75723459Y-38285236D01*
X75757039Y-38275769D01*
X75792959Y-38267941D01*
X75833140Y-38261602D01*
X75879504Y-38256605D01*
X75933972Y-38252803D01*
X75998465Y-38250046D01*
X76074906Y-38248188D01*
X76165215Y-38247080D01*
X76271315Y-38246575D01*
X76339870Y-38246500D01*
X76746740Y-38246445D01*
X76746740Y-41322947D01*
X77427113Y-41322947D01*
X77428777Y-41073371D01*
X77769796Y-41070902D01*
X78110814Y-41068432D01*
X78110814Y-40617112D01*
X77424074Y-40617112D01*
X77424074Y-39883334D01*
X78110814Y-39883334D01*
X78110814Y-39432013D01*
X77769796Y-39429544D01*
X77428777Y-39427075D01*
X77428777Y-38693297D01*
X77769796Y-38690828D01*
X78110814Y-38688358D01*
X78110814Y-38237272D01*
X77769796Y-38234803D01*
X77428777Y-38232334D01*
X77426279Y-37966574D01*
X77423781Y-37700815D01*
X76746740Y-37700815D01*
X76746740Y-37014075D01*
X76295185Y-37014075D01*
X76293792Y-37336278D01*
X76293435Y-37413026D01*
X76293056Y-37484327D01*
X76292670Y-37547860D01*
X76292295Y-37601302D01*
X76291944Y-37642330D01*
X76291636Y-37668621D01*
X76291440Y-37677297D01*
X76290736Y-37682031D01*
X76287997Y-37685897D01*
X76281487Y-37688981D01*
X76269468Y-37691373D01*
X76250206Y-37693159D01*
X76221963Y-37694429D01*
X76183003Y-37695270D01*
X76131591Y-37695771D01*
X76065989Y-37696019D01*
X75984462Y-37696103D01*
X75920671Y-37696112D01*
X75550860Y-37696112D01*
X75547296Y-37018778D01*
X75323987Y-37016256D01*
X75100679Y-37013735D01*
X75098210Y-37354923D01*
X75095740Y-37696112D01*
X74361963Y-37696112D01*
X74359493Y-37355093D01*
X74357024Y-37014075D01*
X73905703Y-37014075D01*
X73905703Y-37701034D01*
X73536463Y-37698573D01*
X73167222Y-37696112D01*
X73164753Y-37355093D01*
X73162283Y-37014075D01*
X72710963Y-37014075D01*
X72710963Y-37700815D01*
X71977419Y-37700815D01*
X71974950Y-37359797D01*
X71972481Y-37018778D01*
X71749173Y-37016256D01*
X71525864Y-37013735D01*
X71523395Y-37354923D01*
G36*
X71051912Y-42620334D02*
G01*
X71046927Y-42645002D01*
X71040418Y-42682653D01*
X71032873Y-42730455D01*
X71024778Y-42785575D01*
X71023788Y-42792575D01*
X71016267Y-42845651D01*
X71006547Y-42913671D01*
X70995159Y-42992959D01*
X70982632Y-43079842D01*
X70969495Y-43170647D01*
X70956278Y-43261700D01*
X70946849Y-43326445D01*
X70935289Y-43405998D01*
X70924635Y-43479894D01*
X70915183Y-43546017D01*
X70907234Y-43602253D01*
X70901086Y-43646487D01*
X70897038Y-43676604D01*
X70895388Y-43690488D01*
X70895365Y-43690982D01*
X70899981Y-43695504D01*
X70915169Y-43698795D01*
X70942900Y-43701001D01*
X70985143Y-43702265D01*
X71043868Y-43702731D01*
X71056279Y-43702741D01*
X71217224Y-43702741D01*
X71212482Y-43681575D01*
X71210321Y-43668525D01*
X71205811Y-43638595D01*
X71199202Y-43593537D01*
X71190748Y-43535105D01*
X71180699Y-43465051D01*
X71169308Y-43385129D01*
X71156825Y-43297093D01*
X71143504Y-43202694D01*
X71134120Y-43135945D01*
X71120417Y-43039013D01*
X71107347Y-42947886D01*
X71095161Y-42864227D01*
X71084112Y-42789700D01*
X71074449Y-42725966D01*
X71066424Y-42674690D01*
X71060288Y-42637535D01*
X71056294Y-42616163D01*
X71054888Y-42611482D01*
X71051912Y-42620334D01*
G37*
X71051912Y-42620334D02*
X71046927Y-42645002D01*
X71040418Y-42682653D01*
X71032873Y-42730455D01*
X71024778Y-42785575D01*
X71023788Y-42792575D01*
X71016267Y-42845651D01*
X71006547Y-42913671D01*
X70995159Y-42992959D01*
X70982632Y-43079842D01*
X70969495Y-43170647D01*
X70956278Y-43261700D01*
X70946849Y-43326445D01*
X70935289Y-43405998D01*
X70924635Y-43479894D01*
X70915183Y-43546017D01*
X70907234Y-43602253D01*
X70901086Y-43646487D01*
X70897038Y-43676604D01*
X70895388Y-43690488D01*
X70895365Y-43690982D01*
X70899981Y-43695504D01*
X70915169Y-43698795D01*
X70942900Y-43701001D01*
X70985143Y-43702265D01*
X71043868Y-43702731D01*
X71056279Y-43702741D01*
X71217224Y-43702741D01*
X71212482Y-43681575D01*
X71210321Y-43668525D01*
X71205811Y-43638595D01*
X71199202Y-43593537D01*
X71190748Y-43535105D01*
X71180699Y-43465051D01*
X71169308Y-43385129D01*
X71156825Y-43297093D01*
X71143504Y-43202694D01*
X71134120Y-43135945D01*
X71120417Y-43039013D01*
X71107347Y-42947886D01*
X71095161Y-42864227D01*
X71084112Y-42789700D01*
X71074449Y-42725966D01*
X71066424Y-42674690D01*
X71060288Y-42637535D01*
X71056294Y-42616163D01*
X71054888Y-42611482D01*
X71051912Y-42620334D01*
G36*
X69416018Y-43440713D02*
G01*
X69362572Y-43442294D01*
X69323987Y-43444259D01*
X69296309Y-43447272D01*
X69275587Y-43452000D01*
X69257869Y-43459106D01*
X69239202Y-43469256D01*
X69236318Y-43470940D01*
X69205573Y-43492327D01*
X69183707Y-43517665D01*
X69165762Y-43550830D01*
X69158341Y-43567044D01*
X69152541Y-43581937D01*
X69148139Y-43598038D01*
X69144911Y-43617880D01*
X69142633Y-43643994D01*
X69141080Y-43678910D01*
X69140029Y-43725161D01*
X69139255Y-43785277D01*
X69138568Y-43857963D01*
X69138040Y-43945510D01*
X69138468Y-44016416D01*
X69140261Y-44072850D01*
X69143831Y-44116978D01*
X69149589Y-44150968D01*
X69157946Y-44176986D01*
X69169312Y-44197201D01*
X69184099Y-44213779D01*
X69202717Y-44228887D01*
X69209861Y-44233982D01*
X69225631Y-44244667D01*
X69239821Y-44252349D01*
X69255900Y-44257607D01*
X69277338Y-44261021D01*
X69307605Y-44263172D01*
X69350169Y-44264638D01*
X69400361Y-44265819D01*
X69550074Y-44269157D01*
X69550074Y-43437241D01*
X69416018Y-43440713D01*
G37*
X69416018Y-43440713D02*
X69362572Y-43442294D01*
X69323987Y-43444259D01*
X69296309Y-43447272D01*
X69275587Y-43452000D01*
X69257869Y-43459106D01*
X69239202Y-43469256D01*
X69236318Y-43470940D01*
X69205573Y-43492327D01*
X69183707Y-43517665D01*
X69165762Y-43550830D01*
X69158341Y-43567044D01*
X69152541Y-43581937D01*
X69148139Y-43598038D01*
X69144911Y-43617880D01*
X69142633Y-43643994D01*
X69141080Y-43678910D01*
X69140029Y-43725161D01*
X69139255Y-43785277D01*
X69138568Y-43857963D01*
X69138040Y-43945510D01*
X69138468Y-44016416D01*
X69140261Y-44072850D01*
X69143831Y-44116978D01*
X69149589Y-44150968D01*
X69157946Y-44176986D01*
X69169312Y-44197201D01*
X69184099Y-44213779D01*
X69202717Y-44228887D01*
X69209861Y-44233982D01*
X69225631Y-44244667D01*
X69239821Y-44252349D01*
X69255900Y-44257607D01*
X69277338Y-44261021D01*
X69307605Y-44263172D01*
X69350169Y-44264638D01*
X69400361Y-44265819D01*
X69550074Y-44269157D01*
X69550074Y-43437241D01*
X69416018Y-43440713D01*
G36*
X69419022Y-42227419D02*
G01*
X69358554Y-42229509D01*
X69313554Y-42233487D01*
X69280678Y-42240772D01*
X69256584Y-42252784D01*
X69237929Y-42270945D01*
X69221373Y-42296673D01*
X69211407Y-42315638D01*
X69203089Y-42333125D01*
X69196918Y-42350060D01*
X69192504Y-42369682D01*
X69189458Y-42395233D01*
X69187390Y-42429954D01*
X69185911Y-42477085D01*
X69184663Y-42538134D01*
X69184104Y-42626055D01*
X69186393Y-42697453D01*
X69192143Y-42754486D01*
X69201971Y-42799314D01*
X69216491Y-42834095D01*
X69236319Y-42860988D01*
X69262069Y-42882151D01*
X69286666Y-42896072D01*
X69309596Y-42905758D01*
X69335070Y-42912388D01*
X69367755Y-42916705D01*
X69412321Y-42919453D01*
X69439537Y-42920442D01*
X69550074Y-42923908D01*
X69550074Y-42224356D01*
X69419022Y-42227419D01*
G37*
X69419022Y-42227419D02*
X69358554Y-42229509D01*
X69313554Y-42233487D01*
X69280678Y-42240772D01*
X69256584Y-42252784D01*
X69237929Y-42270945D01*
X69221373Y-42296673D01*
X69211407Y-42315638D01*
X69203089Y-42333125D01*
X69196918Y-42350060D01*
X69192504Y-42369682D01*
X69189458Y-42395233D01*
X69187390Y-42429954D01*
X69185911Y-42477085D01*
X69184663Y-42538134D01*
X69184104Y-42626055D01*
X69186393Y-42697453D01*
X69192143Y-42754486D01*
X69201971Y-42799314D01*
X69216491Y-42834095D01*
X69236319Y-42860988D01*
X69262069Y-42882151D01*
X69286666Y-42896072D01*
X69309596Y-42905758D01*
X69335070Y-42912388D01*
X69367755Y-42916705D01*
X69412321Y-42919453D01*
X69439537Y-42920442D01*
X69550074Y-42923908D01*
X69550074Y-42224356D01*
X69419022Y-42227419D01*
G36*
X76008156Y-38764952D02*
G01*
X75962333Y-38768912D01*
X75928039Y-38776726D01*
X75901679Y-38789388D01*
X75879654Y-38807890D01*
X75869759Y-38818909D01*
X75856878Y-38836477D01*
X75846588Y-38856722D01*
X75838650Y-38881778D01*
X75832825Y-38913781D01*
X75828873Y-38954865D01*
X75826555Y-39007167D01*
X75825633Y-39072821D01*
X75825866Y-39153963D01*
X75826401Y-39206000D01*
X75827364Y-39282526D01*
X75828333Y-39342650D01*
X75829522Y-39388786D01*
X75831146Y-39423347D01*
X75833417Y-39448744D01*
X75836551Y-39467390D01*
X75840760Y-39481699D01*
X75846258Y-39494082D01*
X75853037Y-39506557D01*
X75872021Y-39535980D01*
X75893161Y-39557423D01*
X75919821Y-39572233D01*
X75955366Y-39581754D01*
X76003160Y-39587335D01*
X76062061Y-39590183D01*
X76182296Y-39593929D01*
X76182296Y-38763852D01*
X76069105Y-38763852D01*
X76008156Y-38764952D01*
G37*
X76008156Y-38764952D02*
X75962333Y-38768912D01*
X75928039Y-38776726D01*
X75901679Y-38789388D01*
X75879654Y-38807890D01*
X75869759Y-38818909D01*
X75856878Y-38836477D01*
X75846588Y-38856722D01*
X75838650Y-38881778D01*
X75832825Y-38913781D01*
X75828873Y-38954865D01*
X75826555Y-39007167D01*
X75825633Y-39072821D01*
X75825866Y-39153963D01*
X75826401Y-39206000D01*
X75827364Y-39282526D01*
X75828333Y-39342650D01*
X75829522Y-39388786D01*
X75831146Y-39423347D01*
X75833417Y-39448744D01*
X75836551Y-39467390D01*
X75840760Y-39481699D01*
X75846258Y-39494082D01*
X75853037Y-39506557D01*
X75872021Y-39535980D01*
X75893161Y-39557423D01*
X75919821Y-39572233D01*
X75955366Y-39581754D01*
X76003160Y-39587335D01*
X76062061Y-39590183D01*
X76182296Y-39593929D01*
X76182296Y-38763852D01*
X76069105Y-38763852D01*
X76008156Y-38764952D01*
%TD*%
M02*
