%TF.GenerationSoftware,KiCad,Pcbnew,(5.1.7)-1*%
%TF.CreationDate,2021-09-13T22:56:48+02:00*%
%TF.ProjectId,Airspeed_SensorBoard,41697273-7065-4656-945f-53656e736f72,rev?*%
%TF.SameCoordinates,Original*%
%TF.FileFunction,Copper,L2,Bot*%
%TF.FilePolarity,Positive*%
%FSLAX46Y46*%
G04 Gerber Fmt 4.6, Leading zero omitted, Abs format (unit mm)*
G04 Created by KiCad (PCBNEW (5.1.7)-1) date 2021-09-13 22:56:48*
%MOMM*%
%LPD*%
G01*
G04 APERTURE LIST*
%TA.AperFunction,ComponentPad*%
%ADD10C,1.500000*%
%TD*%
%TA.AperFunction,ComponentPad*%
%ADD11O,1.300000X0.800000*%
%TD*%
%TA.AperFunction,ViaPad*%
%ADD12C,0.700000*%
%TD*%
%TA.AperFunction,Conductor*%
%ADD13C,0.750000*%
%TD*%
%TA.AperFunction,Conductor*%
%ADD14C,0.300000*%
%TD*%
%TA.AperFunction,Conductor*%
%ADD15C,0.254000*%
%TD*%
%TA.AperFunction,Conductor*%
%ADD16C,0.100000*%
%TD*%
G04 APERTURE END LIST*
D10*
%TO.P,U3,*%
%TO.N,*%
X83800000Y-47000000D03*
X61200000Y-53000000D03*
%TO.P,U3,4*%
%TO.N,/I2C1_SDA*%
X75500000Y-52750000D03*
%TO.P,U3,3*%
%TO.N,GND*%
X73500000Y-52750000D03*
%TO.P,U3,2*%
%TO.N,+3V3*%
X71500000Y-52750000D03*
%TO.P,U3,1*%
%TO.N,/I2C1_SCL*%
X69500000Y-52750000D03*
%TD*%
D11*
%TO.P,J1,10*%
%TO.N,GND*%
X62250000Y-37750000D03*
%TO.P,J1,9*%
%TO.N,/SPI_SCK*%
X62250000Y-36500000D03*
%TO.P,J1,8*%
%TO.N,/DATA_READY*%
X62250000Y-35250000D03*
%TO.P,J1,7*%
%TO.N,/SPI_NSS*%
X62250000Y-34000000D03*
%TO.P,J1,6*%
%TO.N,/SPI_MOSI*%
X62250000Y-32750000D03*
%TO.P,J1,5*%
%TO.N,/SPI_MISO*%
X62250000Y-31500000D03*
%TO.P,J1,4*%
%TO.N,GND*%
X62250000Y-30250000D03*
%TO.P,J1,3*%
%TO.N,/+3V3_OUT*%
X62250000Y-29000000D03*
%TO.P,J1,2*%
%TO.N,GND*%
X62250000Y-27750000D03*
%TO.P,J1,1*%
%TO.N,/+5V_IN*%
%TA.AperFunction,ComponentPad*%
G36*
G01*
X61800000Y-26100000D02*
X62700000Y-26100000D01*
G75*
G02*
X62900000Y-26300000I0J-200000D01*
G01*
X62900000Y-26700000D01*
G75*
G02*
X62700000Y-26900000I-200000J0D01*
G01*
X61800000Y-26900000D01*
G75*
G02*
X61600000Y-26700000I0J200000D01*
G01*
X61600000Y-26300000D01*
G75*
G02*
X61800000Y-26100000I200000J0D01*
G01*
G37*
%TD.AperFunction*%
%TD*%
D12*
%TO.N,GND*%
X67000000Y-26450000D03*
X65000000Y-27800000D03*
X67000000Y-30300000D03*
X64250000Y-30000000D03*
X67000000Y-37400000D03*
X65000000Y-37950000D03*
X64250000Y-35800000D03*
X75950000Y-35800000D03*
X80400000Y-31600000D03*
X77250000Y-27550000D03*
X75700000Y-23650000D03*
X76350000Y-24900000D03*
X83050000Y-26000000D03*
X87200000Y-31500000D03*
X83200000Y-33800000D03*
X70600000Y-30450000D03*
X75350000Y-28500000D03*
%TO.N,+3V3*%
X87100000Y-37400000D03*
X85770000Y-33580000D03*
X80550000Y-33700000D03*
X84400000Y-31450000D03*
X75100000Y-20050000D03*
X81250000Y-20700000D03*
%TO.N,/SPI1_MISO*%
X70700000Y-31900000D03*
X72050000Y-35700000D03*
%TO.N,/SPI1_MOSI*%
X72300000Y-32750000D03*
X74200000Y-35050000D03*
%TD*%
D13*
%TO.N,+3V3*%
X80550000Y-33700000D02*
X81700000Y-32550000D01*
X85770000Y-36070000D02*
X87100000Y-37400000D01*
X85770000Y-33580000D02*
X85770000Y-36070000D01*
X83300000Y-32550000D02*
X84400000Y-31450000D01*
X81700000Y-32550000D02*
X83300000Y-32550000D01*
X80600000Y-20050000D02*
X81250000Y-20700000D01*
X75100000Y-20050000D02*
X80600000Y-20050000D01*
D14*
%TO.N,/SPI1_MISO*%
X70700000Y-34350000D02*
X72050000Y-35700000D01*
X70700000Y-31900000D02*
X70700000Y-34350000D01*
%TO.N,/SPI1_MOSI*%
X72300000Y-32750000D02*
X73350000Y-32750000D01*
X74200000Y-33600000D02*
X74200000Y-35050000D01*
X73350000Y-32750000D02*
X74200000Y-33600000D01*
%TD*%
D15*
%TO.N,GND*%
X74162368Y-19661620D02*
X74104615Y-19852006D01*
X74085114Y-20050000D01*
X74104615Y-20247994D01*
X74162368Y-20438380D01*
X74256153Y-20613840D01*
X74382367Y-20767633D01*
X74536160Y-20893847D01*
X74711620Y-20987632D01*
X74902006Y-21045385D01*
X75050392Y-21060000D01*
X80181645Y-21060000D01*
X80570901Y-21449256D01*
X80686159Y-21543846D01*
X80861620Y-21637632D01*
X81052005Y-21695385D01*
X81250000Y-21714886D01*
X81447994Y-21695385D01*
X81638379Y-21637632D01*
X81747852Y-21579117D01*
X84015000Y-21579117D01*
X84015000Y-21920883D01*
X84081675Y-22256081D01*
X84212463Y-22571831D01*
X84402337Y-22855998D01*
X84644002Y-23097663D01*
X84928169Y-23287537D01*
X85243919Y-23418325D01*
X85579117Y-23485000D01*
X85920883Y-23485000D01*
X86256081Y-23418325D01*
X86571831Y-23287537D01*
X86855998Y-23097663D01*
X87097663Y-22855998D01*
X87287537Y-22571831D01*
X87418325Y-22256081D01*
X87485000Y-21920883D01*
X87485000Y-21579117D01*
X87418325Y-21243919D01*
X87287537Y-20928169D01*
X87097663Y-20644002D01*
X86855998Y-20402337D01*
X86571831Y-20212463D01*
X86256081Y-20081675D01*
X85920883Y-20015000D01*
X85579117Y-20015000D01*
X85243919Y-20081675D01*
X84928169Y-20212463D01*
X84644002Y-20402337D01*
X84402337Y-20644002D01*
X84212463Y-20928169D01*
X84081675Y-21243919D01*
X84015000Y-21579117D01*
X81747852Y-21579117D01*
X81813840Y-21543846D01*
X81967632Y-21417632D01*
X82093846Y-21263840D01*
X82187632Y-21088379D01*
X82245385Y-20897994D01*
X82264886Y-20700000D01*
X82245385Y-20502005D01*
X82187632Y-20311620D01*
X82093846Y-20136159D01*
X81999256Y-20020901D01*
X81638355Y-19660000D01*
X85717722Y-19660000D01*
X86155334Y-19702908D01*
X86545231Y-19820624D01*
X86904836Y-20011830D01*
X87220457Y-20269245D01*
X87480062Y-20583054D01*
X87673776Y-20941317D01*
X87794213Y-21330387D01*
X87840001Y-21766034D01*
X87840001Y-34647493D01*
X87784875Y-34592367D01*
X87593492Y-34464489D01*
X87380839Y-34376405D01*
X87155087Y-34331500D01*
X86924913Y-34331500D01*
X86780000Y-34360325D01*
X86780000Y-33530392D01*
X86765385Y-33382006D01*
X86707632Y-33191620D01*
X86613847Y-33016160D01*
X86487633Y-32862367D01*
X86333840Y-32736153D01*
X86158379Y-32642368D01*
X85967993Y-32584615D01*
X85770000Y-32565114D01*
X85572006Y-32584615D01*
X85381620Y-32642368D01*
X85206160Y-32736153D01*
X85052367Y-32862367D01*
X84926153Y-33016160D01*
X84832368Y-33191621D01*
X84774615Y-33382007D01*
X84760000Y-33530393D01*
X84760001Y-36020383D01*
X84755114Y-36070000D01*
X84774615Y-36267994D01*
X84832368Y-36458379D01*
X84873596Y-36535511D01*
X84926154Y-36633840D01*
X85052368Y-36787633D01*
X85090901Y-36819256D01*
X86420900Y-38149255D01*
X86536159Y-38243846D01*
X86711620Y-38337632D01*
X86902005Y-38395384D01*
X87099999Y-38414886D01*
X87297994Y-38395384D01*
X87488379Y-38337632D01*
X87663840Y-38243846D01*
X87817632Y-38117632D01*
X87840001Y-38090376D01*
X87840000Y-62467722D01*
X87797092Y-62905334D01*
X87679375Y-63295232D01*
X87488170Y-63654836D01*
X87230758Y-63970455D01*
X86916946Y-64230062D01*
X86558680Y-64423777D01*
X86169613Y-64544213D01*
X85733976Y-64590000D01*
X59782278Y-64590000D01*
X59344666Y-64547092D01*
X58954768Y-64429375D01*
X58595164Y-64238170D01*
X58279545Y-63980758D01*
X58019938Y-63666946D01*
X57826223Y-63308680D01*
X57705787Y-62919613D01*
X57660000Y-62483976D01*
X57660000Y-62329117D01*
X58015000Y-62329117D01*
X58015000Y-62670883D01*
X58081675Y-63006081D01*
X58212463Y-63321831D01*
X58402337Y-63605998D01*
X58644002Y-63847663D01*
X58928169Y-64037537D01*
X59243919Y-64168325D01*
X59579117Y-64235000D01*
X59920883Y-64235000D01*
X60256081Y-64168325D01*
X60571831Y-64037537D01*
X60855998Y-63847663D01*
X61097663Y-63605998D01*
X61287537Y-63321831D01*
X61418325Y-63006081D01*
X61485000Y-62670883D01*
X61485000Y-62329117D01*
X84015000Y-62329117D01*
X84015000Y-62670883D01*
X84081675Y-63006081D01*
X84212463Y-63321831D01*
X84402337Y-63605998D01*
X84644002Y-63847663D01*
X84928169Y-64037537D01*
X85243919Y-64168325D01*
X85579117Y-64235000D01*
X85920883Y-64235000D01*
X86256081Y-64168325D01*
X86571831Y-64037537D01*
X86855998Y-63847663D01*
X87097663Y-63605998D01*
X87287537Y-63321831D01*
X87418325Y-63006081D01*
X87485000Y-62670883D01*
X87485000Y-62329117D01*
X87418325Y-61993919D01*
X87287537Y-61678169D01*
X87097663Y-61394002D01*
X86855998Y-61152337D01*
X86571831Y-60962463D01*
X86256081Y-60831675D01*
X85920883Y-60765000D01*
X85579117Y-60765000D01*
X85243919Y-60831675D01*
X84928169Y-60962463D01*
X84644002Y-61152337D01*
X84402337Y-61394002D01*
X84212463Y-61678169D01*
X84081675Y-61993919D01*
X84015000Y-62329117D01*
X61485000Y-62329117D01*
X61418325Y-61993919D01*
X61287537Y-61678169D01*
X61097663Y-61394002D01*
X60855998Y-61152337D01*
X60571831Y-60962463D01*
X60256081Y-60831675D01*
X59920883Y-60765000D01*
X59579117Y-60765000D01*
X59243919Y-60831675D01*
X58928169Y-60962463D01*
X58644002Y-61152337D01*
X58402337Y-61394002D01*
X58212463Y-61678169D01*
X58081675Y-61993919D01*
X58015000Y-62329117D01*
X57660000Y-62329117D01*
X57660000Y-55788967D01*
X59765000Y-55788967D01*
X59765000Y-56111033D01*
X59827832Y-56426912D01*
X59951082Y-56724463D01*
X60130013Y-56992252D01*
X60357748Y-57219987D01*
X60625537Y-57398918D01*
X60923088Y-57522168D01*
X61238967Y-57585000D01*
X61561033Y-57585000D01*
X61876912Y-57522168D01*
X62174463Y-57398918D01*
X62442252Y-57219987D01*
X62669987Y-56992252D01*
X62848918Y-56724463D01*
X62972168Y-56426912D01*
X63035000Y-56111033D01*
X63035000Y-55788967D01*
X81965000Y-55788967D01*
X81965000Y-56111033D01*
X82027832Y-56426912D01*
X82151082Y-56724463D01*
X82330013Y-56992252D01*
X82557748Y-57219987D01*
X82825537Y-57398918D01*
X83123088Y-57522168D01*
X83438967Y-57585000D01*
X83761033Y-57585000D01*
X84076912Y-57522168D01*
X84374463Y-57398918D01*
X84642252Y-57219987D01*
X84869987Y-56992252D01*
X85048918Y-56724463D01*
X85172168Y-56426912D01*
X85235000Y-56111033D01*
X85235000Y-55788967D01*
X85172168Y-55473088D01*
X85048918Y-55175537D01*
X84869987Y-54907748D01*
X84642252Y-54680013D01*
X84374463Y-54501082D01*
X84076912Y-54377832D01*
X83761033Y-54315000D01*
X83438967Y-54315000D01*
X83123088Y-54377832D01*
X82825537Y-54501082D01*
X82557748Y-54680013D01*
X82330013Y-54907748D01*
X82151082Y-55175537D01*
X82027832Y-55473088D01*
X81965000Y-55788967D01*
X63035000Y-55788967D01*
X62972168Y-55473088D01*
X62848918Y-55175537D01*
X62669987Y-54907748D01*
X62442252Y-54680013D01*
X62174463Y-54501082D01*
X61876912Y-54377832D01*
X61617413Y-54326215D01*
X61856043Y-54227371D01*
X62082886Y-54075799D01*
X62275799Y-53882886D01*
X62427371Y-53656043D01*
X62531775Y-53403989D01*
X62585000Y-53136411D01*
X62585000Y-52863589D01*
X62535272Y-52613589D01*
X68115000Y-52613589D01*
X68115000Y-52886411D01*
X68168225Y-53153989D01*
X68272629Y-53406043D01*
X68424201Y-53632886D01*
X68617114Y-53825799D01*
X68843957Y-53977371D01*
X69096011Y-54081775D01*
X69363589Y-54135000D01*
X69636411Y-54135000D01*
X69903989Y-54081775D01*
X70156043Y-53977371D01*
X70382886Y-53825799D01*
X70500000Y-53708685D01*
X70617114Y-53825799D01*
X70843957Y-53977371D01*
X71096011Y-54081775D01*
X71363589Y-54135000D01*
X71636411Y-54135000D01*
X71903989Y-54081775D01*
X72156043Y-53977371D01*
X72382886Y-53825799D01*
X72501692Y-53706993D01*
X72722612Y-53706993D01*
X72788137Y-53945860D01*
X73035116Y-54061760D01*
X73299960Y-54127250D01*
X73572492Y-54139812D01*
X73842238Y-54098965D01*
X74098832Y-54006277D01*
X74211863Y-53945860D01*
X74277388Y-53706993D01*
X73500000Y-52929605D01*
X72722612Y-53706993D01*
X72501692Y-53706993D01*
X72575799Y-53632886D01*
X72727371Y-53406043D01*
X72771932Y-53298463D01*
X73320395Y-52750000D01*
X73679605Y-52750000D01*
X74228068Y-53298463D01*
X74272629Y-53406043D01*
X74424201Y-53632886D01*
X74617114Y-53825799D01*
X74843957Y-53977371D01*
X75096011Y-54081775D01*
X75363589Y-54135000D01*
X75636411Y-54135000D01*
X75903989Y-54081775D01*
X76156043Y-53977371D01*
X76382886Y-53825799D01*
X76575799Y-53632886D01*
X76727371Y-53406043D01*
X76831775Y-53153989D01*
X76885000Y-52886411D01*
X76885000Y-52613589D01*
X76831775Y-52346011D01*
X76727371Y-52093957D01*
X76575799Y-51867114D01*
X76382886Y-51674201D01*
X76156043Y-51522629D01*
X75903989Y-51418225D01*
X75636411Y-51365000D01*
X75363589Y-51365000D01*
X75096011Y-51418225D01*
X74843957Y-51522629D01*
X74617114Y-51674201D01*
X74424201Y-51867114D01*
X74272629Y-52093957D01*
X74228068Y-52201537D01*
X73679605Y-52750000D01*
X73320395Y-52750000D01*
X72771932Y-52201537D01*
X72727371Y-52093957D01*
X72575799Y-51867114D01*
X72501692Y-51793007D01*
X72722612Y-51793007D01*
X73500000Y-52570395D01*
X74277388Y-51793007D01*
X74211863Y-51554140D01*
X73964884Y-51438240D01*
X73700040Y-51372750D01*
X73427508Y-51360188D01*
X73157762Y-51401035D01*
X72901168Y-51493723D01*
X72788137Y-51554140D01*
X72722612Y-51793007D01*
X72501692Y-51793007D01*
X72382886Y-51674201D01*
X72156043Y-51522629D01*
X71903989Y-51418225D01*
X71636411Y-51365000D01*
X71363589Y-51365000D01*
X71096011Y-51418225D01*
X70843957Y-51522629D01*
X70617114Y-51674201D01*
X70500000Y-51791315D01*
X70382886Y-51674201D01*
X70156043Y-51522629D01*
X69903989Y-51418225D01*
X69636411Y-51365000D01*
X69363589Y-51365000D01*
X69096011Y-51418225D01*
X68843957Y-51522629D01*
X68617114Y-51674201D01*
X68424201Y-51867114D01*
X68272629Y-52093957D01*
X68168225Y-52346011D01*
X68115000Y-52613589D01*
X62535272Y-52613589D01*
X62531775Y-52596011D01*
X62427371Y-52343957D01*
X62275799Y-52117114D01*
X62082886Y-51924201D01*
X61856043Y-51772629D01*
X61603989Y-51668225D01*
X61336411Y-51615000D01*
X61063589Y-51615000D01*
X60796011Y-51668225D01*
X60543957Y-51772629D01*
X60317114Y-51924201D01*
X60124201Y-52117114D01*
X59972629Y-52343957D01*
X59868225Y-52596011D01*
X59815000Y-52863589D01*
X59815000Y-53136411D01*
X59868225Y-53403989D01*
X59972629Y-53656043D01*
X60124201Y-53882886D01*
X60317114Y-54075799D01*
X60543957Y-54227371D01*
X60796011Y-54331775D01*
X60975321Y-54367442D01*
X60923088Y-54377832D01*
X60625537Y-54501082D01*
X60357748Y-54680013D01*
X60130013Y-54907748D01*
X59951082Y-55175537D01*
X59827832Y-55473088D01*
X59765000Y-55788967D01*
X57660000Y-55788967D01*
X57660000Y-49838967D01*
X58865000Y-49838967D01*
X58865000Y-50161033D01*
X58927832Y-50476912D01*
X59051082Y-50774463D01*
X59230013Y-51042252D01*
X59457748Y-51269987D01*
X59725537Y-51448918D01*
X60023088Y-51572168D01*
X60338967Y-51635000D01*
X60661033Y-51635000D01*
X60976912Y-51572168D01*
X61274463Y-51448918D01*
X61542252Y-51269987D01*
X61769987Y-51042252D01*
X61948918Y-50774463D01*
X62072168Y-50476912D01*
X62135000Y-50161033D01*
X62135000Y-49838967D01*
X82865000Y-49838967D01*
X82865000Y-50161033D01*
X82927832Y-50476912D01*
X83051082Y-50774463D01*
X83230013Y-51042252D01*
X83457748Y-51269987D01*
X83725537Y-51448918D01*
X84023088Y-51572168D01*
X84338967Y-51635000D01*
X84661033Y-51635000D01*
X84976912Y-51572168D01*
X85274463Y-51448918D01*
X85542252Y-51269987D01*
X85769987Y-51042252D01*
X85948918Y-50774463D01*
X86072168Y-50476912D01*
X86135000Y-50161033D01*
X86135000Y-49838967D01*
X86072168Y-49523088D01*
X85948918Y-49225537D01*
X85769987Y-48957748D01*
X85542252Y-48730013D01*
X85274463Y-48551082D01*
X84976912Y-48427832D01*
X84661033Y-48365000D01*
X84338967Y-48365000D01*
X84023088Y-48427832D01*
X83725537Y-48551082D01*
X83457748Y-48730013D01*
X83230013Y-48957748D01*
X83051082Y-49225537D01*
X82927832Y-49523088D01*
X82865000Y-49838967D01*
X62135000Y-49838967D01*
X62072168Y-49523088D01*
X61948918Y-49225537D01*
X61769987Y-48957748D01*
X61542252Y-48730013D01*
X61274463Y-48551082D01*
X60976912Y-48427832D01*
X60661033Y-48365000D01*
X60338967Y-48365000D01*
X60023088Y-48427832D01*
X59725537Y-48551082D01*
X59457748Y-48730013D01*
X59230013Y-48957748D01*
X59051082Y-49225537D01*
X58927832Y-49523088D01*
X58865000Y-49838967D01*
X57660000Y-49838967D01*
X57660000Y-45388967D01*
X59765000Y-45388967D01*
X59765000Y-45711033D01*
X59827832Y-46026912D01*
X59951082Y-46324463D01*
X60130013Y-46592252D01*
X60357748Y-46819987D01*
X60625537Y-46998918D01*
X60923088Y-47122168D01*
X61238967Y-47185000D01*
X61561033Y-47185000D01*
X61876912Y-47122168D01*
X62174463Y-46998918D01*
X62442252Y-46819987D01*
X62669987Y-46592252D01*
X62848918Y-46324463D01*
X62972168Y-46026912D01*
X63035000Y-45711033D01*
X63035000Y-45388967D01*
X62972168Y-45073088D01*
X62848918Y-44775537D01*
X62669987Y-44507748D01*
X62442252Y-44280013D01*
X62174463Y-44101082D01*
X61876912Y-43977832D01*
X61561033Y-43915000D01*
X61238967Y-43915000D01*
X60923088Y-43977832D01*
X60625537Y-44101082D01*
X60357748Y-44280013D01*
X60130013Y-44507748D01*
X59951082Y-44775537D01*
X59827832Y-45073088D01*
X59765000Y-45388967D01*
X57660000Y-45388967D01*
X57660000Y-43888967D01*
X81965000Y-43888967D01*
X81965000Y-44211033D01*
X82027832Y-44526912D01*
X82151082Y-44824463D01*
X82330013Y-45092252D01*
X82557748Y-45319987D01*
X82825537Y-45498918D01*
X83123088Y-45622168D01*
X83382587Y-45673785D01*
X83143957Y-45772629D01*
X82917114Y-45924201D01*
X82724201Y-46117114D01*
X82572629Y-46343957D01*
X82468225Y-46596011D01*
X82415000Y-46863589D01*
X82415000Y-47136411D01*
X82468225Y-47403989D01*
X82572629Y-47656043D01*
X82724201Y-47882886D01*
X82917114Y-48075799D01*
X83143957Y-48227371D01*
X83396011Y-48331775D01*
X83663589Y-48385000D01*
X83936411Y-48385000D01*
X84203989Y-48331775D01*
X84456043Y-48227371D01*
X84682886Y-48075799D01*
X84875799Y-47882886D01*
X85027371Y-47656043D01*
X85131775Y-47403989D01*
X85185000Y-47136411D01*
X85185000Y-46863589D01*
X85131775Y-46596011D01*
X85027371Y-46343957D01*
X84875799Y-46117114D01*
X84682886Y-45924201D01*
X84456043Y-45772629D01*
X84203989Y-45668225D01*
X84024679Y-45632558D01*
X84076912Y-45622168D01*
X84374463Y-45498918D01*
X84642252Y-45319987D01*
X84869987Y-45092252D01*
X85048918Y-44824463D01*
X85172168Y-44526912D01*
X85235000Y-44211033D01*
X85235000Y-43888967D01*
X85172168Y-43573088D01*
X85048918Y-43275537D01*
X84869987Y-43007748D01*
X84642252Y-42780013D01*
X84374463Y-42601082D01*
X84076912Y-42477832D01*
X83761033Y-42415000D01*
X83438967Y-42415000D01*
X83123088Y-42477832D01*
X82825537Y-42601082D01*
X82557748Y-42780013D01*
X82330013Y-43007748D01*
X82151082Y-43275537D01*
X82027832Y-43573088D01*
X81965000Y-43888967D01*
X57660000Y-43888967D01*
X57660000Y-38036123D01*
X61005334Y-38036123D01*
X61015006Y-38112972D01*
X61104745Y-38298160D01*
X61228888Y-38462283D01*
X61382664Y-38599033D01*
X61560164Y-38703155D01*
X61754567Y-38770648D01*
X61958401Y-38798918D01*
X62123000Y-38633762D01*
X62123000Y-37877000D01*
X62377000Y-37877000D01*
X62377000Y-38633762D01*
X62541599Y-38798918D01*
X62745433Y-38770648D01*
X62939836Y-38703155D01*
X63117336Y-38599033D01*
X63271112Y-38462283D01*
X63395255Y-38298160D01*
X63484994Y-38112972D01*
X63494666Y-38036123D01*
X63366998Y-37877000D01*
X62377000Y-37877000D01*
X62123000Y-37877000D01*
X61133002Y-37877000D01*
X61005334Y-38036123D01*
X57660000Y-38036123D01*
X57660000Y-31500000D01*
X60959993Y-31500000D01*
X60979976Y-31702895D01*
X61039159Y-31897993D01*
X61135266Y-32077797D01*
X61174004Y-32125000D01*
X61135266Y-32172203D01*
X61039159Y-32352007D01*
X60979976Y-32547105D01*
X60959993Y-32750000D01*
X60979976Y-32952895D01*
X61039159Y-33147993D01*
X61135266Y-33327797D01*
X61174004Y-33375000D01*
X61135266Y-33422203D01*
X61039159Y-33602007D01*
X60979976Y-33797105D01*
X60959993Y-34000000D01*
X60979976Y-34202895D01*
X61039159Y-34397993D01*
X61135266Y-34577797D01*
X61174004Y-34625000D01*
X61135266Y-34672203D01*
X61039159Y-34852007D01*
X60979976Y-35047105D01*
X60959993Y-35250000D01*
X60979976Y-35452895D01*
X61039159Y-35647993D01*
X61135266Y-35827797D01*
X61174004Y-35875000D01*
X61135266Y-35922203D01*
X61039159Y-36102007D01*
X60979976Y-36297105D01*
X60959993Y-36500000D01*
X60979976Y-36702895D01*
X61039159Y-36897993D01*
X61135266Y-37077797D01*
X61168209Y-37117938D01*
X61104745Y-37201840D01*
X61015006Y-37387028D01*
X61005334Y-37463877D01*
X61133002Y-37623000D01*
X62123000Y-37623000D01*
X62123000Y-37603000D01*
X62377000Y-37603000D01*
X62377000Y-37623000D01*
X63366998Y-37623000D01*
X63494666Y-37463877D01*
X63484994Y-37387028D01*
X63395255Y-37201840D01*
X63331791Y-37117938D01*
X63364734Y-37077797D01*
X63460841Y-36897993D01*
X63520024Y-36702895D01*
X63540007Y-36500000D01*
X63520024Y-36297105D01*
X63460841Y-36102007D01*
X63364734Y-35922203D01*
X63325996Y-35875000D01*
X63364734Y-35827797D01*
X63460841Y-35647993D01*
X63520024Y-35452895D01*
X63540007Y-35250000D01*
X63520024Y-35047105D01*
X63460841Y-34852007D01*
X63364734Y-34672203D01*
X63325996Y-34625000D01*
X63364734Y-34577797D01*
X63460841Y-34397993D01*
X63520024Y-34202895D01*
X63540007Y-34000000D01*
X63520024Y-33797105D01*
X63460841Y-33602007D01*
X63364734Y-33422203D01*
X63325996Y-33375000D01*
X63364734Y-33327797D01*
X63460841Y-33147993D01*
X63520024Y-32952895D01*
X63540007Y-32750000D01*
X63520024Y-32547105D01*
X63460841Y-32352007D01*
X63364734Y-32172203D01*
X63325996Y-32125000D01*
X63364734Y-32077797D01*
X63460841Y-31897993D01*
X63489661Y-31802986D01*
X69715000Y-31802986D01*
X69715000Y-31997014D01*
X69752853Y-32187314D01*
X69827104Y-32366572D01*
X69915000Y-32498118D01*
X69915001Y-34311437D01*
X69911203Y-34350000D01*
X69926359Y-34503886D01*
X69971246Y-34651859D01*
X69971247Y-34651860D01*
X70044139Y-34788233D01*
X70074181Y-34824839D01*
X70117655Y-34877812D01*
X70117659Y-34877816D01*
X70142237Y-34907764D01*
X70172185Y-34932342D01*
X71071988Y-35832146D01*
X71102853Y-35987314D01*
X71177104Y-36166572D01*
X71284901Y-36327901D01*
X71422099Y-36465099D01*
X71583428Y-36572896D01*
X71762686Y-36647147D01*
X71952986Y-36685000D01*
X72147014Y-36685000D01*
X72337314Y-36647147D01*
X72516572Y-36572896D01*
X72677901Y-36465099D01*
X72815099Y-36327901D01*
X72922896Y-36166572D01*
X72997147Y-35987314D01*
X73035000Y-35797014D01*
X73035000Y-35602986D01*
X72997147Y-35412686D01*
X72922896Y-35233428D01*
X72815099Y-35072099D01*
X72677901Y-34934901D01*
X72516572Y-34827104D01*
X72337314Y-34752853D01*
X72182146Y-34721988D01*
X71485000Y-34024843D01*
X71485000Y-33303219D01*
X71534901Y-33377901D01*
X71672099Y-33515099D01*
X71833428Y-33622896D01*
X72012686Y-33697147D01*
X72202986Y-33735000D01*
X72397014Y-33735000D01*
X72587314Y-33697147D01*
X72766572Y-33622896D01*
X72898117Y-33535000D01*
X73024843Y-33535000D01*
X73415000Y-33925157D01*
X73415001Y-34451882D01*
X73327104Y-34583428D01*
X73252853Y-34762686D01*
X73215000Y-34952986D01*
X73215000Y-35147014D01*
X73252853Y-35337314D01*
X73327104Y-35516572D01*
X73434901Y-35677901D01*
X73572099Y-35815099D01*
X73733428Y-35922896D01*
X73912686Y-35997147D01*
X74102986Y-36035000D01*
X74297014Y-36035000D01*
X74487314Y-35997147D01*
X74666572Y-35922896D01*
X74827901Y-35815099D01*
X74965099Y-35677901D01*
X75072896Y-35516572D01*
X75147147Y-35337314D01*
X75185000Y-35147014D01*
X75185000Y-34952986D01*
X75147147Y-34762686D01*
X75072896Y-34583428D01*
X74985000Y-34451883D01*
X74985000Y-33700000D01*
X79535114Y-33700000D01*
X79554615Y-33897994D01*
X79612368Y-34088379D01*
X79706154Y-34263840D01*
X79832368Y-34417632D01*
X79986160Y-34543846D01*
X80161621Y-34637632D01*
X80352006Y-34695385D01*
X80550000Y-34714886D01*
X80747994Y-34695385D01*
X80807089Y-34677459D01*
X80836405Y-34824839D01*
X80924489Y-35037492D01*
X81052367Y-35228875D01*
X81215125Y-35391633D01*
X81406508Y-35519511D01*
X81468044Y-35545000D01*
X81406508Y-35570489D01*
X81215125Y-35698367D01*
X81052367Y-35861125D01*
X80924489Y-36052508D01*
X80836405Y-36265161D01*
X80791500Y-36490913D01*
X80791500Y-36721087D01*
X80836405Y-36946839D01*
X80924489Y-37159492D01*
X81052367Y-37350875D01*
X81215125Y-37513633D01*
X81406508Y-37641511D01*
X81619161Y-37729595D01*
X81844913Y-37774500D01*
X82075087Y-37774500D01*
X82300839Y-37729595D01*
X82513492Y-37641511D01*
X82704875Y-37513633D01*
X82867633Y-37350875D01*
X82995511Y-37159492D01*
X83083595Y-36946839D01*
X83128500Y-36721087D01*
X83128500Y-36490913D01*
X83083595Y-36265161D01*
X82995511Y-36052508D01*
X82867633Y-35861125D01*
X82704875Y-35698367D01*
X82513492Y-35570489D01*
X82451956Y-35545000D01*
X82513492Y-35519511D01*
X82704875Y-35391633D01*
X82867633Y-35228875D01*
X82995511Y-35037492D01*
X83083595Y-34824839D01*
X83128500Y-34599087D01*
X83128500Y-34368913D01*
X83083595Y-34143161D01*
X82995511Y-33930508D01*
X82867633Y-33739125D01*
X82704875Y-33576367D01*
X82680380Y-33560000D01*
X83250392Y-33560000D01*
X83300000Y-33564886D01*
X83497994Y-33545385D01*
X83640995Y-33502006D01*
X83688380Y-33487632D01*
X83863840Y-33393847D01*
X84017633Y-33267633D01*
X84049261Y-33229094D01*
X85149256Y-32129100D01*
X85243846Y-32013841D01*
X85337632Y-31838380D01*
X85395385Y-31647995D01*
X85414886Y-31450000D01*
X85395385Y-31252006D01*
X85337632Y-31061621D01*
X85243846Y-30886160D01*
X85117632Y-30732368D01*
X84963840Y-30606154D01*
X84788379Y-30512368D01*
X84597994Y-30454615D01*
X84400000Y-30435114D01*
X84202005Y-30454615D01*
X84011620Y-30512368D01*
X83836159Y-30606154D01*
X83720900Y-30700744D01*
X82881645Y-31540000D01*
X81749608Y-31540000D01*
X81700000Y-31535114D01*
X81502005Y-31554615D01*
X81358523Y-31598140D01*
X81311620Y-31612368D01*
X81136160Y-31706153D01*
X80982367Y-31832367D01*
X80950743Y-31870901D01*
X79800744Y-33020901D01*
X79706154Y-33136160D01*
X79612368Y-33311621D01*
X79554615Y-33502006D01*
X79535114Y-33700000D01*
X74985000Y-33700000D01*
X74985000Y-33638556D01*
X74988797Y-33600000D01*
X74985000Y-33561440D01*
X74985000Y-33561439D01*
X74979146Y-33502006D01*
X74973642Y-33446113D01*
X74928754Y-33298140D01*
X74925839Y-33292686D01*
X74855862Y-33161767D01*
X74757764Y-33042236D01*
X74727811Y-33017654D01*
X73932347Y-32222190D01*
X73907764Y-32192236D01*
X73788233Y-32094138D01*
X73651860Y-32021246D01*
X73503887Y-31976359D01*
X73388561Y-31965000D01*
X73388553Y-31965000D01*
X73350000Y-31961203D01*
X73311447Y-31965000D01*
X72898117Y-31965000D01*
X72766572Y-31877104D01*
X72587314Y-31802853D01*
X72397014Y-31765000D01*
X72202986Y-31765000D01*
X72012686Y-31802853D01*
X71833428Y-31877104D01*
X71685000Y-31976281D01*
X71685000Y-31802986D01*
X71647147Y-31612686D01*
X71572896Y-31433428D01*
X71465099Y-31272099D01*
X71327901Y-31134901D01*
X71166572Y-31027104D01*
X70987314Y-30952853D01*
X70797014Y-30915000D01*
X70602986Y-30915000D01*
X70412686Y-30952853D01*
X70233428Y-31027104D01*
X70072099Y-31134901D01*
X69934901Y-31272099D01*
X69827104Y-31433428D01*
X69752853Y-31612686D01*
X69715000Y-31802986D01*
X63489661Y-31802986D01*
X63520024Y-31702895D01*
X63540007Y-31500000D01*
X63520024Y-31297105D01*
X63460841Y-31102007D01*
X63364734Y-30922203D01*
X63331791Y-30882062D01*
X63395255Y-30798160D01*
X63484994Y-30612972D01*
X63494666Y-30536123D01*
X63366998Y-30377000D01*
X62377000Y-30377000D01*
X62377000Y-30397000D01*
X62123000Y-30397000D01*
X62123000Y-30377000D01*
X61133002Y-30377000D01*
X61005334Y-30536123D01*
X61015006Y-30612972D01*
X61104745Y-30798160D01*
X61168209Y-30882062D01*
X61135266Y-30922203D01*
X61039159Y-31102007D01*
X60979976Y-31297105D01*
X60959993Y-31500000D01*
X57660000Y-31500000D01*
X57660000Y-29000000D01*
X60959993Y-29000000D01*
X60979976Y-29202895D01*
X61039159Y-29397993D01*
X61135266Y-29577797D01*
X61168209Y-29617938D01*
X61104745Y-29701840D01*
X61015006Y-29887028D01*
X61005334Y-29963877D01*
X61133002Y-30123000D01*
X62123000Y-30123000D01*
X62123000Y-30103000D01*
X62377000Y-30103000D01*
X62377000Y-30123000D01*
X63366998Y-30123000D01*
X63494666Y-29963877D01*
X63484994Y-29887028D01*
X63395255Y-29701840D01*
X63331791Y-29617938D01*
X63364734Y-29577797D01*
X63460841Y-29397993D01*
X63520024Y-29202895D01*
X63540007Y-29000000D01*
X63520024Y-28797105D01*
X63460841Y-28602007D01*
X63364734Y-28422203D01*
X63331791Y-28382062D01*
X63395255Y-28298160D01*
X63484994Y-28112972D01*
X63494666Y-28036123D01*
X63366998Y-27877000D01*
X62377000Y-27877000D01*
X62377000Y-27897000D01*
X62123000Y-27897000D01*
X62123000Y-27877000D01*
X61133002Y-27877000D01*
X61005334Y-28036123D01*
X61015006Y-28112972D01*
X61104745Y-28298160D01*
X61168209Y-28382062D01*
X61135266Y-28422203D01*
X61039159Y-28602007D01*
X60979976Y-28797105D01*
X60959993Y-29000000D01*
X57660000Y-29000000D01*
X57660000Y-26300000D01*
X60961928Y-26300000D01*
X60961928Y-26700000D01*
X60978031Y-26863500D01*
X61025722Y-27020716D01*
X61103169Y-27165608D01*
X61118251Y-27183985D01*
X61104745Y-27201840D01*
X61015006Y-27387028D01*
X61005334Y-27463877D01*
X61133002Y-27623000D01*
X62123000Y-27623000D01*
X62123000Y-27603000D01*
X62377000Y-27603000D01*
X62377000Y-27623000D01*
X63366998Y-27623000D01*
X63494666Y-27463877D01*
X63484994Y-27387028D01*
X63395255Y-27201840D01*
X63381749Y-27183985D01*
X63396831Y-27165608D01*
X63474278Y-27020716D01*
X63521969Y-26863500D01*
X63538072Y-26700000D01*
X63538072Y-26300000D01*
X63521969Y-26136500D01*
X63474278Y-25979284D01*
X63396831Y-25834392D01*
X63292606Y-25707394D01*
X63165608Y-25603169D01*
X63020716Y-25525722D01*
X62863500Y-25478031D01*
X62700000Y-25461928D01*
X61800000Y-25461928D01*
X61636500Y-25478031D01*
X61479284Y-25525722D01*
X61334392Y-25603169D01*
X61207394Y-25707394D01*
X61103169Y-25834392D01*
X61025722Y-25979284D01*
X60978031Y-26136500D01*
X60961928Y-26300000D01*
X57660000Y-26300000D01*
X57660000Y-21782278D01*
X57679920Y-21579117D01*
X58015000Y-21579117D01*
X58015000Y-21920883D01*
X58081675Y-22256081D01*
X58212463Y-22571831D01*
X58402337Y-22855998D01*
X58644002Y-23097663D01*
X58928169Y-23287537D01*
X59243919Y-23418325D01*
X59579117Y-23485000D01*
X59920883Y-23485000D01*
X60256081Y-23418325D01*
X60571831Y-23287537D01*
X60855998Y-23097663D01*
X61097663Y-22855998D01*
X61287537Y-22571831D01*
X61418325Y-22256081D01*
X61485000Y-21920883D01*
X61485000Y-21579117D01*
X61418325Y-21243919D01*
X61287537Y-20928169D01*
X61097663Y-20644002D01*
X60855998Y-20402337D01*
X60571831Y-20212463D01*
X60256081Y-20081675D01*
X59920883Y-20015000D01*
X59579117Y-20015000D01*
X59243919Y-20081675D01*
X58928169Y-20212463D01*
X58644002Y-20402337D01*
X58402337Y-20644002D01*
X58212463Y-20928169D01*
X58081675Y-21243919D01*
X58015000Y-21579117D01*
X57679920Y-21579117D01*
X57702908Y-21344666D01*
X57820624Y-20954769D01*
X58011830Y-20595164D01*
X58269245Y-20279543D01*
X58583054Y-20019938D01*
X58941317Y-19826224D01*
X59330387Y-19705787D01*
X59766024Y-19660000D01*
X74163234Y-19660000D01*
X74162368Y-19661620D01*
%TA.AperFunction,Conductor*%
D16*
G36*
X74162368Y-19661620D02*
G01*
X74104615Y-19852006D01*
X74085114Y-20050000D01*
X74104615Y-20247994D01*
X74162368Y-20438380D01*
X74256153Y-20613840D01*
X74382367Y-20767633D01*
X74536160Y-20893847D01*
X74711620Y-20987632D01*
X74902006Y-21045385D01*
X75050392Y-21060000D01*
X80181645Y-21060000D01*
X80570901Y-21449256D01*
X80686159Y-21543846D01*
X80861620Y-21637632D01*
X81052005Y-21695385D01*
X81250000Y-21714886D01*
X81447994Y-21695385D01*
X81638379Y-21637632D01*
X81747852Y-21579117D01*
X84015000Y-21579117D01*
X84015000Y-21920883D01*
X84081675Y-22256081D01*
X84212463Y-22571831D01*
X84402337Y-22855998D01*
X84644002Y-23097663D01*
X84928169Y-23287537D01*
X85243919Y-23418325D01*
X85579117Y-23485000D01*
X85920883Y-23485000D01*
X86256081Y-23418325D01*
X86571831Y-23287537D01*
X86855998Y-23097663D01*
X87097663Y-22855998D01*
X87287537Y-22571831D01*
X87418325Y-22256081D01*
X87485000Y-21920883D01*
X87485000Y-21579117D01*
X87418325Y-21243919D01*
X87287537Y-20928169D01*
X87097663Y-20644002D01*
X86855998Y-20402337D01*
X86571831Y-20212463D01*
X86256081Y-20081675D01*
X85920883Y-20015000D01*
X85579117Y-20015000D01*
X85243919Y-20081675D01*
X84928169Y-20212463D01*
X84644002Y-20402337D01*
X84402337Y-20644002D01*
X84212463Y-20928169D01*
X84081675Y-21243919D01*
X84015000Y-21579117D01*
X81747852Y-21579117D01*
X81813840Y-21543846D01*
X81967632Y-21417632D01*
X82093846Y-21263840D01*
X82187632Y-21088379D01*
X82245385Y-20897994D01*
X82264886Y-20700000D01*
X82245385Y-20502005D01*
X82187632Y-20311620D01*
X82093846Y-20136159D01*
X81999256Y-20020901D01*
X81638355Y-19660000D01*
X85717722Y-19660000D01*
X86155334Y-19702908D01*
X86545231Y-19820624D01*
X86904836Y-20011830D01*
X87220457Y-20269245D01*
X87480062Y-20583054D01*
X87673776Y-20941317D01*
X87794213Y-21330387D01*
X87840001Y-21766034D01*
X87840001Y-34647493D01*
X87784875Y-34592367D01*
X87593492Y-34464489D01*
X87380839Y-34376405D01*
X87155087Y-34331500D01*
X86924913Y-34331500D01*
X86780000Y-34360325D01*
X86780000Y-33530392D01*
X86765385Y-33382006D01*
X86707632Y-33191620D01*
X86613847Y-33016160D01*
X86487633Y-32862367D01*
X86333840Y-32736153D01*
X86158379Y-32642368D01*
X85967993Y-32584615D01*
X85770000Y-32565114D01*
X85572006Y-32584615D01*
X85381620Y-32642368D01*
X85206160Y-32736153D01*
X85052367Y-32862367D01*
X84926153Y-33016160D01*
X84832368Y-33191621D01*
X84774615Y-33382007D01*
X84760000Y-33530393D01*
X84760001Y-36020383D01*
X84755114Y-36070000D01*
X84774615Y-36267994D01*
X84832368Y-36458379D01*
X84873596Y-36535511D01*
X84926154Y-36633840D01*
X85052368Y-36787633D01*
X85090901Y-36819256D01*
X86420900Y-38149255D01*
X86536159Y-38243846D01*
X86711620Y-38337632D01*
X86902005Y-38395384D01*
X87099999Y-38414886D01*
X87297994Y-38395384D01*
X87488379Y-38337632D01*
X87663840Y-38243846D01*
X87817632Y-38117632D01*
X87840001Y-38090376D01*
X87840000Y-62467722D01*
X87797092Y-62905334D01*
X87679375Y-63295232D01*
X87488170Y-63654836D01*
X87230758Y-63970455D01*
X86916946Y-64230062D01*
X86558680Y-64423777D01*
X86169613Y-64544213D01*
X85733976Y-64590000D01*
X59782278Y-64590000D01*
X59344666Y-64547092D01*
X58954768Y-64429375D01*
X58595164Y-64238170D01*
X58279545Y-63980758D01*
X58019938Y-63666946D01*
X57826223Y-63308680D01*
X57705787Y-62919613D01*
X57660000Y-62483976D01*
X57660000Y-62329117D01*
X58015000Y-62329117D01*
X58015000Y-62670883D01*
X58081675Y-63006081D01*
X58212463Y-63321831D01*
X58402337Y-63605998D01*
X58644002Y-63847663D01*
X58928169Y-64037537D01*
X59243919Y-64168325D01*
X59579117Y-64235000D01*
X59920883Y-64235000D01*
X60256081Y-64168325D01*
X60571831Y-64037537D01*
X60855998Y-63847663D01*
X61097663Y-63605998D01*
X61287537Y-63321831D01*
X61418325Y-63006081D01*
X61485000Y-62670883D01*
X61485000Y-62329117D01*
X84015000Y-62329117D01*
X84015000Y-62670883D01*
X84081675Y-63006081D01*
X84212463Y-63321831D01*
X84402337Y-63605998D01*
X84644002Y-63847663D01*
X84928169Y-64037537D01*
X85243919Y-64168325D01*
X85579117Y-64235000D01*
X85920883Y-64235000D01*
X86256081Y-64168325D01*
X86571831Y-64037537D01*
X86855998Y-63847663D01*
X87097663Y-63605998D01*
X87287537Y-63321831D01*
X87418325Y-63006081D01*
X87485000Y-62670883D01*
X87485000Y-62329117D01*
X87418325Y-61993919D01*
X87287537Y-61678169D01*
X87097663Y-61394002D01*
X86855998Y-61152337D01*
X86571831Y-60962463D01*
X86256081Y-60831675D01*
X85920883Y-60765000D01*
X85579117Y-60765000D01*
X85243919Y-60831675D01*
X84928169Y-60962463D01*
X84644002Y-61152337D01*
X84402337Y-61394002D01*
X84212463Y-61678169D01*
X84081675Y-61993919D01*
X84015000Y-62329117D01*
X61485000Y-62329117D01*
X61418325Y-61993919D01*
X61287537Y-61678169D01*
X61097663Y-61394002D01*
X60855998Y-61152337D01*
X60571831Y-60962463D01*
X60256081Y-60831675D01*
X59920883Y-60765000D01*
X59579117Y-60765000D01*
X59243919Y-60831675D01*
X58928169Y-60962463D01*
X58644002Y-61152337D01*
X58402337Y-61394002D01*
X58212463Y-61678169D01*
X58081675Y-61993919D01*
X58015000Y-62329117D01*
X57660000Y-62329117D01*
X57660000Y-55788967D01*
X59765000Y-55788967D01*
X59765000Y-56111033D01*
X59827832Y-56426912D01*
X59951082Y-56724463D01*
X60130013Y-56992252D01*
X60357748Y-57219987D01*
X60625537Y-57398918D01*
X60923088Y-57522168D01*
X61238967Y-57585000D01*
X61561033Y-57585000D01*
X61876912Y-57522168D01*
X62174463Y-57398918D01*
X62442252Y-57219987D01*
X62669987Y-56992252D01*
X62848918Y-56724463D01*
X62972168Y-56426912D01*
X63035000Y-56111033D01*
X63035000Y-55788967D01*
X81965000Y-55788967D01*
X81965000Y-56111033D01*
X82027832Y-56426912D01*
X82151082Y-56724463D01*
X82330013Y-56992252D01*
X82557748Y-57219987D01*
X82825537Y-57398918D01*
X83123088Y-57522168D01*
X83438967Y-57585000D01*
X83761033Y-57585000D01*
X84076912Y-57522168D01*
X84374463Y-57398918D01*
X84642252Y-57219987D01*
X84869987Y-56992252D01*
X85048918Y-56724463D01*
X85172168Y-56426912D01*
X85235000Y-56111033D01*
X85235000Y-55788967D01*
X85172168Y-55473088D01*
X85048918Y-55175537D01*
X84869987Y-54907748D01*
X84642252Y-54680013D01*
X84374463Y-54501082D01*
X84076912Y-54377832D01*
X83761033Y-54315000D01*
X83438967Y-54315000D01*
X83123088Y-54377832D01*
X82825537Y-54501082D01*
X82557748Y-54680013D01*
X82330013Y-54907748D01*
X82151082Y-55175537D01*
X82027832Y-55473088D01*
X81965000Y-55788967D01*
X63035000Y-55788967D01*
X62972168Y-55473088D01*
X62848918Y-55175537D01*
X62669987Y-54907748D01*
X62442252Y-54680013D01*
X62174463Y-54501082D01*
X61876912Y-54377832D01*
X61617413Y-54326215D01*
X61856043Y-54227371D01*
X62082886Y-54075799D01*
X62275799Y-53882886D01*
X62427371Y-53656043D01*
X62531775Y-53403989D01*
X62585000Y-53136411D01*
X62585000Y-52863589D01*
X62535272Y-52613589D01*
X68115000Y-52613589D01*
X68115000Y-52886411D01*
X68168225Y-53153989D01*
X68272629Y-53406043D01*
X68424201Y-53632886D01*
X68617114Y-53825799D01*
X68843957Y-53977371D01*
X69096011Y-54081775D01*
X69363589Y-54135000D01*
X69636411Y-54135000D01*
X69903989Y-54081775D01*
X70156043Y-53977371D01*
X70382886Y-53825799D01*
X70500000Y-53708685D01*
X70617114Y-53825799D01*
X70843957Y-53977371D01*
X71096011Y-54081775D01*
X71363589Y-54135000D01*
X71636411Y-54135000D01*
X71903989Y-54081775D01*
X72156043Y-53977371D01*
X72382886Y-53825799D01*
X72501692Y-53706993D01*
X72722612Y-53706993D01*
X72788137Y-53945860D01*
X73035116Y-54061760D01*
X73299960Y-54127250D01*
X73572492Y-54139812D01*
X73842238Y-54098965D01*
X74098832Y-54006277D01*
X74211863Y-53945860D01*
X74277388Y-53706993D01*
X73500000Y-52929605D01*
X72722612Y-53706993D01*
X72501692Y-53706993D01*
X72575799Y-53632886D01*
X72727371Y-53406043D01*
X72771932Y-53298463D01*
X73320395Y-52750000D01*
X73679605Y-52750000D01*
X74228068Y-53298463D01*
X74272629Y-53406043D01*
X74424201Y-53632886D01*
X74617114Y-53825799D01*
X74843957Y-53977371D01*
X75096011Y-54081775D01*
X75363589Y-54135000D01*
X75636411Y-54135000D01*
X75903989Y-54081775D01*
X76156043Y-53977371D01*
X76382886Y-53825799D01*
X76575799Y-53632886D01*
X76727371Y-53406043D01*
X76831775Y-53153989D01*
X76885000Y-52886411D01*
X76885000Y-52613589D01*
X76831775Y-52346011D01*
X76727371Y-52093957D01*
X76575799Y-51867114D01*
X76382886Y-51674201D01*
X76156043Y-51522629D01*
X75903989Y-51418225D01*
X75636411Y-51365000D01*
X75363589Y-51365000D01*
X75096011Y-51418225D01*
X74843957Y-51522629D01*
X74617114Y-51674201D01*
X74424201Y-51867114D01*
X74272629Y-52093957D01*
X74228068Y-52201537D01*
X73679605Y-52750000D01*
X73320395Y-52750000D01*
X72771932Y-52201537D01*
X72727371Y-52093957D01*
X72575799Y-51867114D01*
X72501692Y-51793007D01*
X72722612Y-51793007D01*
X73500000Y-52570395D01*
X74277388Y-51793007D01*
X74211863Y-51554140D01*
X73964884Y-51438240D01*
X73700040Y-51372750D01*
X73427508Y-51360188D01*
X73157762Y-51401035D01*
X72901168Y-51493723D01*
X72788137Y-51554140D01*
X72722612Y-51793007D01*
X72501692Y-51793007D01*
X72382886Y-51674201D01*
X72156043Y-51522629D01*
X71903989Y-51418225D01*
X71636411Y-51365000D01*
X71363589Y-51365000D01*
X71096011Y-51418225D01*
X70843957Y-51522629D01*
X70617114Y-51674201D01*
X70500000Y-51791315D01*
X70382886Y-51674201D01*
X70156043Y-51522629D01*
X69903989Y-51418225D01*
X69636411Y-51365000D01*
X69363589Y-51365000D01*
X69096011Y-51418225D01*
X68843957Y-51522629D01*
X68617114Y-51674201D01*
X68424201Y-51867114D01*
X68272629Y-52093957D01*
X68168225Y-52346011D01*
X68115000Y-52613589D01*
X62535272Y-52613589D01*
X62531775Y-52596011D01*
X62427371Y-52343957D01*
X62275799Y-52117114D01*
X62082886Y-51924201D01*
X61856043Y-51772629D01*
X61603989Y-51668225D01*
X61336411Y-51615000D01*
X61063589Y-51615000D01*
X60796011Y-51668225D01*
X60543957Y-51772629D01*
X60317114Y-51924201D01*
X60124201Y-52117114D01*
X59972629Y-52343957D01*
X59868225Y-52596011D01*
X59815000Y-52863589D01*
X59815000Y-53136411D01*
X59868225Y-53403989D01*
X59972629Y-53656043D01*
X60124201Y-53882886D01*
X60317114Y-54075799D01*
X60543957Y-54227371D01*
X60796011Y-54331775D01*
X60975321Y-54367442D01*
X60923088Y-54377832D01*
X60625537Y-54501082D01*
X60357748Y-54680013D01*
X60130013Y-54907748D01*
X59951082Y-55175537D01*
X59827832Y-55473088D01*
X59765000Y-55788967D01*
X57660000Y-55788967D01*
X57660000Y-49838967D01*
X58865000Y-49838967D01*
X58865000Y-50161033D01*
X58927832Y-50476912D01*
X59051082Y-50774463D01*
X59230013Y-51042252D01*
X59457748Y-51269987D01*
X59725537Y-51448918D01*
X60023088Y-51572168D01*
X60338967Y-51635000D01*
X60661033Y-51635000D01*
X60976912Y-51572168D01*
X61274463Y-51448918D01*
X61542252Y-51269987D01*
X61769987Y-51042252D01*
X61948918Y-50774463D01*
X62072168Y-50476912D01*
X62135000Y-50161033D01*
X62135000Y-49838967D01*
X82865000Y-49838967D01*
X82865000Y-50161033D01*
X82927832Y-50476912D01*
X83051082Y-50774463D01*
X83230013Y-51042252D01*
X83457748Y-51269987D01*
X83725537Y-51448918D01*
X84023088Y-51572168D01*
X84338967Y-51635000D01*
X84661033Y-51635000D01*
X84976912Y-51572168D01*
X85274463Y-51448918D01*
X85542252Y-51269987D01*
X85769987Y-51042252D01*
X85948918Y-50774463D01*
X86072168Y-50476912D01*
X86135000Y-50161033D01*
X86135000Y-49838967D01*
X86072168Y-49523088D01*
X85948918Y-49225537D01*
X85769987Y-48957748D01*
X85542252Y-48730013D01*
X85274463Y-48551082D01*
X84976912Y-48427832D01*
X84661033Y-48365000D01*
X84338967Y-48365000D01*
X84023088Y-48427832D01*
X83725537Y-48551082D01*
X83457748Y-48730013D01*
X83230013Y-48957748D01*
X83051082Y-49225537D01*
X82927832Y-49523088D01*
X82865000Y-49838967D01*
X62135000Y-49838967D01*
X62072168Y-49523088D01*
X61948918Y-49225537D01*
X61769987Y-48957748D01*
X61542252Y-48730013D01*
X61274463Y-48551082D01*
X60976912Y-48427832D01*
X60661033Y-48365000D01*
X60338967Y-48365000D01*
X60023088Y-48427832D01*
X59725537Y-48551082D01*
X59457748Y-48730013D01*
X59230013Y-48957748D01*
X59051082Y-49225537D01*
X58927832Y-49523088D01*
X58865000Y-49838967D01*
X57660000Y-49838967D01*
X57660000Y-45388967D01*
X59765000Y-45388967D01*
X59765000Y-45711033D01*
X59827832Y-46026912D01*
X59951082Y-46324463D01*
X60130013Y-46592252D01*
X60357748Y-46819987D01*
X60625537Y-46998918D01*
X60923088Y-47122168D01*
X61238967Y-47185000D01*
X61561033Y-47185000D01*
X61876912Y-47122168D01*
X62174463Y-46998918D01*
X62442252Y-46819987D01*
X62669987Y-46592252D01*
X62848918Y-46324463D01*
X62972168Y-46026912D01*
X63035000Y-45711033D01*
X63035000Y-45388967D01*
X62972168Y-45073088D01*
X62848918Y-44775537D01*
X62669987Y-44507748D01*
X62442252Y-44280013D01*
X62174463Y-44101082D01*
X61876912Y-43977832D01*
X61561033Y-43915000D01*
X61238967Y-43915000D01*
X60923088Y-43977832D01*
X60625537Y-44101082D01*
X60357748Y-44280013D01*
X60130013Y-44507748D01*
X59951082Y-44775537D01*
X59827832Y-45073088D01*
X59765000Y-45388967D01*
X57660000Y-45388967D01*
X57660000Y-43888967D01*
X81965000Y-43888967D01*
X81965000Y-44211033D01*
X82027832Y-44526912D01*
X82151082Y-44824463D01*
X82330013Y-45092252D01*
X82557748Y-45319987D01*
X82825537Y-45498918D01*
X83123088Y-45622168D01*
X83382587Y-45673785D01*
X83143957Y-45772629D01*
X82917114Y-45924201D01*
X82724201Y-46117114D01*
X82572629Y-46343957D01*
X82468225Y-46596011D01*
X82415000Y-46863589D01*
X82415000Y-47136411D01*
X82468225Y-47403989D01*
X82572629Y-47656043D01*
X82724201Y-47882886D01*
X82917114Y-48075799D01*
X83143957Y-48227371D01*
X83396011Y-48331775D01*
X83663589Y-48385000D01*
X83936411Y-48385000D01*
X84203989Y-48331775D01*
X84456043Y-48227371D01*
X84682886Y-48075799D01*
X84875799Y-47882886D01*
X85027371Y-47656043D01*
X85131775Y-47403989D01*
X85185000Y-47136411D01*
X85185000Y-46863589D01*
X85131775Y-46596011D01*
X85027371Y-46343957D01*
X84875799Y-46117114D01*
X84682886Y-45924201D01*
X84456043Y-45772629D01*
X84203989Y-45668225D01*
X84024679Y-45632558D01*
X84076912Y-45622168D01*
X84374463Y-45498918D01*
X84642252Y-45319987D01*
X84869987Y-45092252D01*
X85048918Y-44824463D01*
X85172168Y-44526912D01*
X85235000Y-44211033D01*
X85235000Y-43888967D01*
X85172168Y-43573088D01*
X85048918Y-43275537D01*
X84869987Y-43007748D01*
X84642252Y-42780013D01*
X84374463Y-42601082D01*
X84076912Y-42477832D01*
X83761033Y-42415000D01*
X83438967Y-42415000D01*
X83123088Y-42477832D01*
X82825537Y-42601082D01*
X82557748Y-42780013D01*
X82330013Y-43007748D01*
X82151082Y-43275537D01*
X82027832Y-43573088D01*
X81965000Y-43888967D01*
X57660000Y-43888967D01*
X57660000Y-38036123D01*
X61005334Y-38036123D01*
X61015006Y-38112972D01*
X61104745Y-38298160D01*
X61228888Y-38462283D01*
X61382664Y-38599033D01*
X61560164Y-38703155D01*
X61754567Y-38770648D01*
X61958401Y-38798918D01*
X62123000Y-38633762D01*
X62123000Y-37877000D01*
X62377000Y-37877000D01*
X62377000Y-38633762D01*
X62541599Y-38798918D01*
X62745433Y-38770648D01*
X62939836Y-38703155D01*
X63117336Y-38599033D01*
X63271112Y-38462283D01*
X63395255Y-38298160D01*
X63484994Y-38112972D01*
X63494666Y-38036123D01*
X63366998Y-37877000D01*
X62377000Y-37877000D01*
X62123000Y-37877000D01*
X61133002Y-37877000D01*
X61005334Y-38036123D01*
X57660000Y-38036123D01*
X57660000Y-31500000D01*
X60959993Y-31500000D01*
X60979976Y-31702895D01*
X61039159Y-31897993D01*
X61135266Y-32077797D01*
X61174004Y-32125000D01*
X61135266Y-32172203D01*
X61039159Y-32352007D01*
X60979976Y-32547105D01*
X60959993Y-32750000D01*
X60979976Y-32952895D01*
X61039159Y-33147993D01*
X61135266Y-33327797D01*
X61174004Y-33375000D01*
X61135266Y-33422203D01*
X61039159Y-33602007D01*
X60979976Y-33797105D01*
X60959993Y-34000000D01*
X60979976Y-34202895D01*
X61039159Y-34397993D01*
X61135266Y-34577797D01*
X61174004Y-34625000D01*
X61135266Y-34672203D01*
X61039159Y-34852007D01*
X60979976Y-35047105D01*
X60959993Y-35250000D01*
X60979976Y-35452895D01*
X61039159Y-35647993D01*
X61135266Y-35827797D01*
X61174004Y-35875000D01*
X61135266Y-35922203D01*
X61039159Y-36102007D01*
X60979976Y-36297105D01*
X60959993Y-36500000D01*
X60979976Y-36702895D01*
X61039159Y-36897993D01*
X61135266Y-37077797D01*
X61168209Y-37117938D01*
X61104745Y-37201840D01*
X61015006Y-37387028D01*
X61005334Y-37463877D01*
X61133002Y-37623000D01*
X62123000Y-37623000D01*
X62123000Y-37603000D01*
X62377000Y-37603000D01*
X62377000Y-37623000D01*
X63366998Y-37623000D01*
X63494666Y-37463877D01*
X63484994Y-37387028D01*
X63395255Y-37201840D01*
X63331791Y-37117938D01*
X63364734Y-37077797D01*
X63460841Y-36897993D01*
X63520024Y-36702895D01*
X63540007Y-36500000D01*
X63520024Y-36297105D01*
X63460841Y-36102007D01*
X63364734Y-35922203D01*
X63325996Y-35875000D01*
X63364734Y-35827797D01*
X63460841Y-35647993D01*
X63520024Y-35452895D01*
X63540007Y-35250000D01*
X63520024Y-35047105D01*
X63460841Y-34852007D01*
X63364734Y-34672203D01*
X63325996Y-34625000D01*
X63364734Y-34577797D01*
X63460841Y-34397993D01*
X63520024Y-34202895D01*
X63540007Y-34000000D01*
X63520024Y-33797105D01*
X63460841Y-33602007D01*
X63364734Y-33422203D01*
X63325996Y-33375000D01*
X63364734Y-33327797D01*
X63460841Y-33147993D01*
X63520024Y-32952895D01*
X63540007Y-32750000D01*
X63520024Y-32547105D01*
X63460841Y-32352007D01*
X63364734Y-32172203D01*
X63325996Y-32125000D01*
X63364734Y-32077797D01*
X63460841Y-31897993D01*
X63489661Y-31802986D01*
X69715000Y-31802986D01*
X69715000Y-31997014D01*
X69752853Y-32187314D01*
X69827104Y-32366572D01*
X69915000Y-32498118D01*
X69915001Y-34311437D01*
X69911203Y-34350000D01*
X69926359Y-34503886D01*
X69971246Y-34651859D01*
X69971247Y-34651860D01*
X70044139Y-34788233D01*
X70074181Y-34824839D01*
X70117655Y-34877812D01*
X70117659Y-34877816D01*
X70142237Y-34907764D01*
X70172185Y-34932342D01*
X71071988Y-35832146D01*
X71102853Y-35987314D01*
X71177104Y-36166572D01*
X71284901Y-36327901D01*
X71422099Y-36465099D01*
X71583428Y-36572896D01*
X71762686Y-36647147D01*
X71952986Y-36685000D01*
X72147014Y-36685000D01*
X72337314Y-36647147D01*
X72516572Y-36572896D01*
X72677901Y-36465099D01*
X72815099Y-36327901D01*
X72922896Y-36166572D01*
X72997147Y-35987314D01*
X73035000Y-35797014D01*
X73035000Y-35602986D01*
X72997147Y-35412686D01*
X72922896Y-35233428D01*
X72815099Y-35072099D01*
X72677901Y-34934901D01*
X72516572Y-34827104D01*
X72337314Y-34752853D01*
X72182146Y-34721988D01*
X71485000Y-34024843D01*
X71485000Y-33303219D01*
X71534901Y-33377901D01*
X71672099Y-33515099D01*
X71833428Y-33622896D01*
X72012686Y-33697147D01*
X72202986Y-33735000D01*
X72397014Y-33735000D01*
X72587314Y-33697147D01*
X72766572Y-33622896D01*
X72898117Y-33535000D01*
X73024843Y-33535000D01*
X73415000Y-33925157D01*
X73415001Y-34451882D01*
X73327104Y-34583428D01*
X73252853Y-34762686D01*
X73215000Y-34952986D01*
X73215000Y-35147014D01*
X73252853Y-35337314D01*
X73327104Y-35516572D01*
X73434901Y-35677901D01*
X73572099Y-35815099D01*
X73733428Y-35922896D01*
X73912686Y-35997147D01*
X74102986Y-36035000D01*
X74297014Y-36035000D01*
X74487314Y-35997147D01*
X74666572Y-35922896D01*
X74827901Y-35815099D01*
X74965099Y-35677901D01*
X75072896Y-35516572D01*
X75147147Y-35337314D01*
X75185000Y-35147014D01*
X75185000Y-34952986D01*
X75147147Y-34762686D01*
X75072896Y-34583428D01*
X74985000Y-34451883D01*
X74985000Y-33700000D01*
X79535114Y-33700000D01*
X79554615Y-33897994D01*
X79612368Y-34088379D01*
X79706154Y-34263840D01*
X79832368Y-34417632D01*
X79986160Y-34543846D01*
X80161621Y-34637632D01*
X80352006Y-34695385D01*
X80550000Y-34714886D01*
X80747994Y-34695385D01*
X80807089Y-34677459D01*
X80836405Y-34824839D01*
X80924489Y-35037492D01*
X81052367Y-35228875D01*
X81215125Y-35391633D01*
X81406508Y-35519511D01*
X81468044Y-35545000D01*
X81406508Y-35570489D01*
X81215125Y-35698367D01*
X81052367Y-35861125D01*
X80924489Y-36052508D01*
X80836405Y-36265161D01*
X80791500Y-36490913D01*
X80791500Y-36721087D01*
X80836405Y-36946839D01*
X80924489Y-37159492D01*
X81052367Y-37350875D01*
X81215125Y-37513633D01*
X81406508Y-37641511D01*
X81619161Y-37729595D01*
X81844913Y-37774500D01*
X82075087Y-37774500D01*
X82300839Y-37729595D01*
X82513492Y-37641511D01*
X82704875Y-37513633D01*
X82867633Y-37350875D01*
X82995511Y-37159492D01*
X83083595Y-36946839D01*
X83128500Y-36721087D01*
X83128500Y-36490913D01*
X83083595Y-36265161D01*
X82995511Y-36052508D01*
X82867633Y-35861125D01*
X82704875Y-35698367D01*
X82513492Y-35570489D01*
X82451956Y-35545000D01*
X82513492Y-35519511D01*
X82704875Y-35391633D01*
X82867633Y-35228875D01*
X82995511Y-35037492D01*
X83083595Y-34824839D01*
X83128500Y-34599087D01*
X83128500Y-34368913D01*
X83083595Y-34143161D01*
X82995511Y-33930508D01*
X82867633Y-33739125D01*
X82704875Y-33576367D01*
X82680380Y-33560000D01*
X83250392Y-33560000D01*
X83300000Y-33564886D01*
X83497994Y-33545385D01*
X83640995Y-33502006D01*
X83688380Y-33487632D01*
X83863840Y-33393847D01*
X84017633Y-33267633D01*
X84049261Y-33229094D01*
X85149256Y-32129100D01*
X85243846Y-32013841D01*
X85337632Y-31838380D01*
X85395385Y-31647995D01*
X85414886Y-31450000D01*
X85395385Y-31252006D01*
X85337632Y-31061621D01*
X85243846Y-30886160D01*
X85117632Y-30732368D01*
X84963840Y-30606154D01*
X84788379Y-30512368D01*
X84597994Y-30454615D01*
X84400000Y-30435114D01*
X84202005Y-30454615D01*
X84011620Y-30512368D01*
X83836159Y-30606154D01*
X83720900Y-30700744D01*
X82881645Y-31540000D01*
X81749608Y-31540000D01*
X81700000Y-31535114D01*
X81502005Y-31554615D01*
X81358523Y-31598140D01*
X81311620Y-31612368D01*
X81136160Y-31706153D01*
X80982367Y-31832367D01*
X80950743Y-31870901D01*
X79800744Y-33020901D01*
X79706154Y-33136160D01*
X79612368Y-33311621D01*
X79554615Y-33502006D01*
X79535114Y-33700000D01*
X74985000Y-33700000D01*
X74985000Y-33638556D01*
X74988797Y-33600000D01*
X74985000Y-33561440D01*
X74985000Y-33561439D01*
X74979146Y-33502006D01*
X74973642Y-33446113D01*
X74928754Y-33298140D01*
X74925839Y-33292686D01*
X74855862Y-33161767D01*
X74757764Y-33042236D01*
X74727811Y-33017654D01*
X73932347Y-32222190D01*
X73907764Y-32192236D01*
X73788233Y-32094138D01*
X73651860Y-32021246D01*
X73503887Y-31976359D01*
X73388561Y-31965000D01*
X73388553Y-31965000D01*
X73350000Y-31961203D01*
X73311447Y-31965000D01*
X72898117Y-31965000D01*
X72766572Y-31877104D01*
X72587314Y-31802853D01*
X72397014Y-31765000D01*
X72202986Y-31765000D01*
X72012686Y-31802853D01*
X71833428Y-31877104D01*
X71685000Y-31976281D01*
X71685000Y-31802986D01*
X71647147Y-31612686D01*
X71572896Y-31433428D01*
X71465099Y-31272099D01*
X71327901Y-31134901D01*
X71166572Y-31027104D01*
X70987314Y-30952853D01*
X70797014Y-30915000D01*
X70602986Y-30915000D01*
X70412686Y-30952853D01*
X70233428Y-31027104D01*
X70072099Y-31134901D01*
X69934901Y-31272099D01*
X69827104Y-31433428D01*
X69752853Y-31612686D01*
X69715000Y-31802986D01*
X63489661Y-31802986D01*
X63520024Y-31702895D01*
X63540007Y-31500000D01*
X63520024Y-31297105D01*
X63460841Y-31102007D01*
X63364734Y-30922203D01*
X63331791Y-30882062D01*
X63395255Y-30798160D01*
X63484994Y-30612972D01*
X63494666Y-30536123D01*
X63366998Y-30377000D01*
X62377000Y-30377000D01*
X62377000Y-30397000D01*
X62123000Y-30397000D01*
X62123000Y-30377000D01*
X61133002Y-30377000D01*
X61005334Y-30536123D01*
X61015006Y-30612972D01*
X61104745Y-30798160D01*
X61168209Y-30882062D01*
X61135266Y-30922203D01*
X61039159Y-31102007D01*
X60979976Y-31297105D01*
X60959993Y-31500000D01*
X57660000Y-31500000D01*
X57660000Y-29000000D01*
X60959993Y-29000000D01*
X60979976Y-29202895D01*
X61039159Y-29397993D01*
X61135266Y-29577797D01*
X61168209Y-29617938D01*
X61104745Y-29701840D01*
X61015006Y-29887028D01*
X61005334Y-29963877D01*
X61133002Y-30123000D01*
X62123000Y-30123000D01*
X62123000Y-30103000D01*
X62377000Y-30103000D01*
X62377000Y-30123000D01*
X63366998Y-30123000D01*
X63494666Y-29963877D01*
X63484994Y-29887028D01*
X63395255Y-29701840D01*
X63331791Y-29617938D01*
X63364734Y-29577797D01*
X63460841Y-29397993D01*
X63520024Y-29202895D01*
X63540007Y-29000000D01*
X63520024Y-28797105D01*
X63460841Y-28602007D01*
X63364734Y-28422203D01*
X63331791Y-28382062D01*
X63395255Y-28298160D01*
X63484994Y-28112972D01*
X63494666Y-28036123D01*
X63366998Y-27877000D01*
X62377000Y-27877000D01*
X62377000Y-27897000D01*
X62123000Y-27897000D01*
X62123000Y-27877000D01*
X61133002Y-27877000D01*
X61005334Y-28036123D01*
X61015006Y-28112972D01*
X61104745Y-28298160D01*
X61168209Y-28382062D01*
X61135266Y-28422203D01*
X61039159Y-28602007D01*
X60979976Y-28797105D01*
X60959993Y-29000000D01*
X57660000Y-29000000D01*
X57660000Y-26300000D01*
X60961928Y-26300000D01*
X60961928Y-26700000D01*
X60978031Y-26863500D01*
X61025722Y-27020716D01*
X61103169Y-27165608D01*
X61118251Y-27183985D01*
X61104745Y-27201840D01*
X61015006Y-27387028D01*
X61005334Y-27463877D01*
X61133002Y-27623000D01*
X62123000Y-27623000D01*
X62123000Y-27603000D01*
X62377000Y-27603000D01*
X62377000Y-27623000D01*
X63366998Y-27623000D01*
X63494666Y-27463877D01*
X63484994Y-27387028D01*
X63395255Y-27201840D01*
X63381749Y-27183985D01*
X63396831Y-27165608D01*
X63474278Y-27020716D01*
X63521969Y-26863500D01*
X63538072Y-26700000D01*
X63538072Y-26300000D01*
X63521969Y-26136500D01*
X63474278Y-25979284D01*
X63396831Y-25834392D01*
X63292606Y-25707394D01*
X63165608Y-25603169D01*
X63020716Y-25525722D01*
X62863500Y-25478031D01*
X62700000Y-25461928D01*
X61800000Y-25461928D01*
X61636500Y-25478031D01*
X61479284Y-25525722D01*
X61334392Y-25603169D01*
X61207394Y-25707394D01*
X61103169Y-25834392D01*
X61025722Y-25979284D01*
X60978031Y-26136500D01*
X60961928Y-26300000D01*
X57660000Y-26300000D01*
X57660000Y-21782278D01*
X57679920Y-21579117D01*
X58015000Y-21579117D01*
X58015000Y-21920883D01*
X58081675Y-22256081D01*
X58212463Y-22571831D01*
X58402337Y-22855998D01*
X58644002Y-23097663D01*
X58928169Y-23287537D01*
X59243919Y-23418325D01*
X59579117Y-23485000D01*
X59920883Y-23485000D01*
X60256081Y-23418325D01*
X60571831Y-23287537D01*
X60855998Y-23097663D01*
X61097663Y-22855998D01*
X61287537Y-22571831D01*
X61418325Y-22256081D01*
X61485000Y-21920883D01*
X61485000Y-21579117D01*
X61418325Y-21243919D01*
X61287537Y-20928169D01*
X61097663Y-20644002D01*
X60855998Y-20402337D01*
X60571831Y-20212463D01*
X60256081Y-20081675D01*
X59920883Y-20015000D01*
X59579117Y-20015000D01*
X59243919Y-20081675D01*
X58928169Y-20212463D01*
X58644002Y-20402337D01*
X58402337Y-20644002D01*
X58212463Y-20928169D01*
X58081675Y-21243919D01*
X58015000Y-21579117D01*
X57679920Y-21579117D01*
X57702908Y-21344666D01*
X57820624Y-20954769D01*
X58011830Y-20595164D01*
X58269245Y-20279543D01*
X58583054Y-20019938D01*
X58941317Y-19826224D01*
X59330387Y-19705787D01*
X59766024Y-19660000D01*
X74163234Y-19660000D01*
X74162368Y-19661620D01*
G37*
%TD.AperFunction*%
%TD*%
M02*
